<?xml version="1.0" encoding="UTF-8"?>
<svg id="Layer_2" data-name="Layer 2" xmlns="http://www.w3.org/2000/svg" viewBox="0 0 64 64">
  <defs>
    <style>
      .cls-1 {
        fill: #fff;
      }
    </style>
  </defs>
  <path class="cls-1" d="M47.47,24.38v14.83c0,1.19-1.14,2.58-2.37,2.72-.81.1-5.29.11-5.89-.08-.16-.05-.32-.13-.43-.27-.36-.42.12-1.76.53-1.76h5.62l.26-.26v-20.36c0-.4.85-.84,1.27-.77.52.1,1.01.82,1.01,1.29v2.55h6.23l.26-.26v-9.48c0-1.17-1.81-3.28-2.82-3.85-2.58-1.44-8.44-.2-11.47-.64-1.64,8.67-13.67,8.69-15.3,0-3.01.21-6.32-.25-9.3,0-2,.17-5,2.37-5,4.48v9.48l.26.26h6.23v-2.72c0-1.4,2.28-1.31,2.28-.35v20.36l.26.26h5.62c.5,0,.99,1.66.22,1.99-.5.21-5.25.21-6.02.12-.64-.08-1.38-.53-1.76-1.05-.18-.25-.61-1.28-.61-1.5v-15.01h-6.76c-.24,0-1.32-.87-1.49-1.14-.23-.36-.42-1.03-.48-1.45-.33-2.43-.24-9.47.76-11.61,3.01-6.39,11.51-3.96,17.15-4.37,1.12.64.73,1.96,1.13,3.09,1.57,4.53,8.43,4.62,10.24.13.54-1.35-.15-3.09,1.65-3.27,2.48-.25,7.14-.17,9.67,0,3.67.25,6.87,2.56,7.59,6.28.34,1.76.48,9.06-.05,10.58-.19.55-1.2,1.76-1.75,1.76h-6.76Z"/>
  <path class="cls-1" d="M31.85,43.87c.42.1.28-.08.39-.23.15-.22.39-.63.52-.88,1.17-2.23,2.09-4.62,3.4-6.78.97-.91,2.21.07,1.79,1.26l-4.61,9.45,1.5,3.32c.72.07,1.05-.75,1.59-1.13,3.43-2.43,8.26.17,8.22,4.36-.04,4.12-4.82,6.62-8.22,4.22-1.98-1.4-1.87-3.16-2.73-5.16-.16-.37-1.42-2.94-1.58-2.99-.37-.1-.46.84-.76,1-1.81,2.84-1.42,6.67-5.16,7.83-5.21,1.62-9.08-4.93-5.3-8.63,1.78-1.74,4.67-2.08,6.73-.62.54.38.87,1.2,1.59,1.13l1.5-3.32-4.58-9.31c-.53-1.32.81-2.4,1.82-1.3l3.89,7.78ZM26.69,50.95c-2.87-2.65-7.03,1.7-4.16,4.42,2.85,2.7,7.07-1.73,4.16-4.42ZM38.82,50.23c-3.16.51-3.15,5.38,0,5.88,4.76.76,4.74-6.65,0-5.88Z"/>
  <path class="cls-1" d="M31.19,21.88c-.29-.31-.32-3.05-.19-3.52.19-.66,1.39-.66,1.81-.12.37.48.37,2.57.19,3.17-.23.74-1.25,1.06-1.81.47Z"/>
  <path class="cls-1" d="M31.19,30.66c-.29-.31-.32-3.05-.19-3.52.19-.66,1.39-.66,1.81-.12.37.48.37,2.57.19,3.17-.23.74-1.25,1.06-1.81.47Z"/>
</svg>