<?xml version="1.0" encoding="UTF-8"?>
<svg id="Layer_2" data-name="Layer 2" xmlns="http://www.w3.org/2000/svg" viewBox="0 0 64 64">
  <defs>
    <style>
      .cls-1 {
        fill: #0e585c;
      }
    </style>
  </defs>
  <path class="cls-1" d="M12.78,30.1c-.95-.13-2.03-.82-2.14-1.85.14-7.71-2-17.19,7.48-19.95,11.14-.48,22.38-.18,33.54-.15,1.48.6,2.62,1.74,2.87,3.36v41.83c-.13,1.38-1.46,2.48-2.79,2.63H11.65c-6.7-.05-6.94-11.31-.48-11.98h26.35c.81-.14.97-.41,1.04-1.18.52-6.07-.4-12.86,0-19.01-.06-1.51-1.35-2.63-2.8-2.79-1.92-.22-6.18-.17-8.15,0-4.62.4-2.17,5.1-3.2,7.82-.22.59-1.33,1.29-1.91,1.29h-3.91v5.91c2.68-.44,2.53,2.32,0,2.07-.08.99.44,2.85-1.04,2.88-.57.01-1.04-.54-1.04-1.04v-9.82c-1.18-.11-2.61.15-3.75,0ZM52.45,13.98v-2.47c0-.37-.99-1.42-1.51-1.36l-31.44.03c-2.79-.03-6.8,3.73-6.8,6.45v11.42h9.9v-4.87c0-1.76,2.55-3.86,4.25-4.05,2.08-.24,7.47-.25,9.54,0,2.88.34,4.08,2.89,4.25,5.48.39,5.75-.31,11.94,0,17.73-.2,2.72-1.23,3.57-3.91,3.75-8.38.58-17.41-.45-25.86,0-.92.27-1.81.91-2.01,1.91h28.98c.51,0,1,1.06.49,1.61-.06.06-.76.47-.81.47H8.7c-.26,1.95.56,3.62,2.64,3.83l40.84-.15c.08-.05.27-.35.27-.41V16.05h-20.2c-.52,0-.99-1.26-.52-1.72.03-.03.79-.36.84-.36h19.88Z"/>
  <path class="cls-1" d="M45.7,40.04c5.69-.97,6.56,7.43,1.22,7.93-5.12.48-5.91-7.13-1.22-7.93ZM45.86,42.11c-1.78.46-1.76,3.74.6,3.81,2.96.09,2.57-4.62-.6-3.81Z"/>
</svg>