<?xml version="1.0" encoding="UTF-8"?>
<svg id="Layer_2" data-name="Layer 2" xmlns="http://www.w3.org/2000/svg" viewBox="0 0 64 64">
  <defs>
    <style>
      .cls-1 {
        fill: #0e585c;
      }
    </style>
  </defs>
  <path class="cls-1" d="M40.08,29.18c2.75-1.94,5.88-3.24,9.24-3.66.96-.12,2.68-.55,3.31.33.58.81.07,3.4-.14,4.42-1.73,8.77-9.27,15.34-18.19,15.95-.28,1.78.33,2.78,1.66,3.85,2.98,2.38,7.04,1.91,9.83-.52.7-.61,1.82-2.52,2.59-2.43s1.79,1.79,2.5,2.42c1.41,1.24,3,2.07,4.92,2.12.8.02,2.08-.62,2.46.51.67,2.02-3.02,1.8-4.18,1.55-2.2-.47-4.1-2.1-5.81-3.46-4.1,4.44-11.29,5.06-15.13-.03-.34-.05-1.97,1.43-2.47,1.74-4.06,2.48-8.67,2.56-12.5-.42-.44-.34-1.25-1.41-1.69-1.49-.85.67-1.63,1.42-2.55,2.01-1.95,1.25-4.03,2.06-6.4,1.86-.9-.08-2.01-.31-1.84-1.49.18-1.24,2.62-.71,3.58-.82,2.71-.31,4.46-2.24,6.24-3.94,1.6-1.52,2.2.51,3.25,1.5,3.4,3.22,8.37,3.08,11.85.09,1.09-.94,1.67-1.5,1.4-3.07-9.06-.51-16.97-7.45-18.38-16.47-.13-.86-.53-3.49.04-4.07.62-.64,3.58-.13,4.51.04,1.45.27,2.79.79,4.17,1.27l3.86,2.19c-.79-5.72.53-11.65,3.97-16.31.45-.61,2.17-2.76,2.81-2.82.68-.06,1.79,1.21,2.27,1.75,4.04,4.67,5.57,11.31,4.83,17.38ZM33.23,38.3c.27-.63.54-1.46.85-2.05,1.81-3.39,3.57-4.26,3.89-8.57.25-3.35-.21-6.78-1.55-9.86-.37-.85-2.62-4.98-3.45-4.97-2.23,2.7-3.93,5.93-4.45,9.42-.4,2.7-.47,7.24.76,9.71.4.81,1.39,1.8,1.92,2.65.72,1.17,1.07,2.25,1.67,3.42.09.18-.09.33.36.25ZM15.68,27.6c.23,7.52,6.01,14.25,13.31,15.92.52.12,2.65.63,2.94.24-.58-8.56-7.7-15.56-16.25-16.15ZM50.61,27.6c-8.61.52-15.88,7.67-16.32,16.32,8.62-.36,15.84-7.75,16.32-16.32Z"/>
</svg>