<?xml version="1.0" encoding="UTF-8"?>
<svg id="Layer_2" data-name="Layer 2" xmlns="http://www.w3.org/2000/svg" viewBox="0 0 64 64">
  <defs>
    <style>
      .cls-1 {
        fill: #0e585c;
      }
    </style>
  </defs>
  <path class="cls-1" d="M57.24,46.63c-.53.43-1.96.71-2.66.76H9.45c-3.33.09-5.27-3.51-2.42-5.77l23.82-11.46c1.02-3.4,5.24-2.62,5.55-6.57.39-4.99-6.42-6.71-8.4-2.26-.49,1.08-.04,2.85-1.51,2.88-1.27.03-1.07-1.44-.92-2.33.84-4.81,6.79-6.97,10.57-3.83,2.88,2.39,3.29,6.58.86,9.47-1.09,1.3-2.6,1.49-3.76,2.56l23.86,11.6c1.63,1.12,1.64,3.72.13,4.94ZM31.8,32.15l-23.36,11.23c-.61.22-.67,1.37-.12,1.64l47.27.05c.73-.21.65-1.55-.11-1.75l-23.11-11.12c-.19-.09-.37-.08-.57-.05Z"/>
</svg>