<?xml version="1.0" encoding="UTF-8"?>
<svg id="Layer_2" data-name="Layer 2" xmlns="http://www.w3.org/2000/svg" viewBox="0 0 133 40">
  <defs>
    <style>
      .cls-1 {
        fill: #fff;
      }
    </style>
  </defs>
  <g id="Layer_2-2" data-name="Layer 2">
    <g>
      <g id="Logotype">
        <path id="_" data-name="®" class="cls-1" d="M131.67,28.61c.74,0,1.33.6,1.33,1.35s-.59,1.35-1.33,1.35-1.31-.59-1.31-1.35.59-1.35,1.31-1.35ZM131.67,31.15c.66,0,1.16-.52,1.16-1.19s-.5-1.19-1.16-1.19-1.15.52-1.15,1.19.5,1.19,1.15,1.19ZM131.24,29.21h.5c.25,0,.43.17.43.43,0,.22-.13.36-.29.4h0s.01.03.05.09l.29.57h-.18l-.32-.62h-.32v.62h-.16v-1.49ZM131.72,29.94c.17,0,.28-.11.28-.29s-.11-.28-.28-.28h-.31v.58h.31Z"/>
        <path class="cls-1" d="M119.93,31.48c-2.27,0-4.55-1.29-4.55-4.16,0-1.8,1.02-3.11,3.04-3.88,1.71-.65,3.72-.75,4.77-.75h1v-.58c0-1.66-.94-2.54-2.71-2.54s-3.5,1.01-3.94,1.3l-1.19-2.23c.41-.3,2.46-1.66,5.43-1.66,3.72,0,5.68,1.88,5.68,5.43v5.63c0,.47.26.72.72.72h1.16v2.39h-3.2c-1.07,0-1.68-.5-1.68-1.38v-.17c0-.42.08-.68.08-.68l.04-.15h-.28s-.03.07-.03.07c-.01.03-1.2,2.64-4.34,2.64ZM123.52,24.58c-1.45,0-4.84.24-4.84,2.46,0,1.21.89,2.05,2.16,2.05,1.59,0,3.37-1.68,3.37-3.92v-.58h-.7ZM96.61,31.48c-1.79,0-3.32-.69-4.4-2.01-1.08-1.3-1.64-3.12-1.64-5.25,0-4.34,2.54-7.25,6.32-7.25,2.32,0,3.6,1.26,3.96,1.93l.03.06h.26s-.02-.13-.02-.13c0,0-.05-.41-.05-.98v-3.68h-4.01v-2.39h7.26v16.25c0,.47.26.72.72.72h1.16v2.39h-3.2c-1.05,0-1.68-.51-1.68-1.38v-.17c0-.36.08-.6.08-.6l.05-.15h-.29s-.03.07-.03.07c-.01.03-1.12,2.55-4.51,2.55ZM97.58,19.75c-2.22,0-3.71,1.8-3.71,4.48s1.44,4.53,3.59,4.53c1.7,0,3.68-1.17,3.68-4.45,0-2.27-1.1-4.56-3.57-4.56ZM83.74,31.48c-4.32,0-7.45-3.05-7.45-7.25s2.89-7.25,7.04-7.25c1.89,0,3.47.66,4.57,1.9,1.02,1.16,1.58,2.82,1.58,4.66,0,.31-.05.85-.07,1.07h-9.77v.12c.22,2.44,1.92,4.02,4.35,4.02,2.01,0,3.62-1.11,4.05-1.43l1.24,2.28c-.39.32-2.44,1.87-5.54,1.87ZM83.24,19.45c-1.81,0-3.16,1.22-3.51,3.19l-.02.14h6.39v-.12c-.06-1.92-1.2-3.2-2.85-3.2ZM107.27,31.15v-2.39h2.04v-9.06h-2.18v-2.39h5.46v11.45h2.02v2.39h-7.34ZM70.75,31.15v-8.28c0-1.52-.25-2.93-2.05-2.93-2.56,0-3.71,2.57-3.71,5.11v3.7h2.04v2.39h-5.29v-8.28c0-1.52-.24-2.93-2.02-2.93s-3.73,1.65-3.73,5.28v3.54h2.02v2.39h-7.34v-2.39h2.04v-8.37c0-.44-.26-.69-.72-.69h-1.46v-2.39h3.56c1.14,0,1.74.5,1.74,1.46v.63c0,.29-.05.58-.05.59l-.02.14h.26s.03-.06.03-.06c.77-1.53,2.52-3.08,4.7-3.08,2.02,0,3.3,1,3.81,2.98l.02.09h.22l.03-.07c.7-1.49,2.45-3,4.78-3,2.93,0,4.41,1.76,4.41,5.24v6.55h2.04v2.39h-5.32ZM109.32,15.06v-3.27h3.28v3.27h-3.28Z"/>
        <path class="cls-1" d="M70.56,14.51c-1.36,0-2.74-.3-3.77-.83-.84-.42-1.83-1.19-1.83-2.45v-1.51h2.75v.71c0,1.09,1.44,1.58,2.88,1.58,1.55,0,2.52-.59,2.52-1.55,0-1.12-1.1-1.51-2.61-2.05-.21-.08-.44-.15-.67-.24-2.21-.77-4.37-1.73-4.37-4.25,0-2.89,2.93-3.91,5.44-3.91,1.92,0,4.97.76,4.97,2.81v1.68h-2.78v-.69c0-.77-.86-1.27-2.19-1.27s-2.16.53-2.16,1.38c0,1.3,1.61,1.78,3.04,2.21,1.95.62,4.61,1.48,4.61,4.22,0,1.3-.59,2.37-1.71,3.11-1.03.68-2.49,1.05-4.12,1.05ZM54.72,14.51c-1.22,0-2.35-.37-3.16-1.04-.91-.75-1.39-1.83-1.39-3.13,0-1.8,1.02-3.11,3.04-3.88,1.71-.65,3.72-.75,4.77-.75h1v-.58c0-1.66-.94-2.54-2.71-2.54s-3.5,1.01-3.94,1.3l-1.19-2.23c.41-.3,2.46-1.66,5.43-1.66,3.72,0,5.68,1.88,5.68,5.43v5.63c0,.47.26.72.72.72h1.16v2.39h-3.2c-1.07,0-1.68-.5-1.68-1.38v-.17c0-.42.08-.68.08-.68l.04-.15h-.28s-.03.07-.03.07c-.01.03-1.2,2.64-4.34,2.64ZM58.31,7.61c-1.45,0-4.84.24-4.84,2.46,0,1.21.89,2.05,2.16,2.05,1.93,0,3.37-2.07,3.37-3.92v-.58h-.7ZM88.91,14.18V5.96c0-1.39-.27-2.99-2.35-2.99s-4.15,1.75-4.15,5v3.81h2.02v2.39h-7.34v-2.39h2.04V3.45c0-.45-.27-.72-.72-.72h-1.46V.33h3.59c1.13,0,1.71.49,1.71,1.46v.63c0,.29-.05.58-.05.59l-.02.14h.27l.03-.07s1.32-3.07,5.08-3.07c3.1,0,4.61,1.71,4.61,5.24v6.55h2.04v2.39h-5.29Z"/>
      </g>
      <path class="cls-1" d="M27.75,31.55c-4,0-6.8-2.64-6.8-6.42,0-3.05,2.07-5.26,6.16-6.56,3.46-1.1,7.57-1.27,9.71-1.27h1.85v1.47c0,2.96-1.15,6.18-3.07,8.62-2.11,2.68-4.9,4.16-7.84,4.16Z"/>
      <path class="cls-1" d="M20.03,40c-4.24-.91-7.45-2.71-9.39-4.33-3.41-2.86-5.14-6.83-5.14-11.81,0-6.12,2.99-10.95,5.5-13.94,2.72-3.23,5.47-5.04,5.5-5.06.26-.19,6.43-4.56,13.4-4.56,3.96,0,8.67,1.41,8.67,8.1v1.47h-2.88c-3.58,0-10.46.33-16.33,2.58-7.04,2.69-10.61,7.27-10.61,13.61,0,3.74,1.11,6.91,3.29,9.42,1.29,1.49,3.61,3.51,7.99,4.52Z"/>
      <path class="cls-1" d="M9.77,36.59C2.93,31.46,0,24.04,0,16.65,0,11.69,1.35,7.66,4.14,4.33c1.22-1.46,2.6-2.62,3.98-3.36,1.13-.6,2.18-.91,3.14-.91,1.69,0,3.05.95,4.05,2.82l.43.8s-.02.01-.02.02c-.32.21-3.25,2.19-6.08,5.64-3.67,4.49-5.53,9.37-5.53,14.51,0,4.54,1.4,9.28,5.67,12.73Z"/>
    </g>
  </g>
</svg>