<?xml version="1.0" encoding="UTF-8"?><svg id="Layer_1" xmlns="http://www.w3.org/2000/svg" xmlns:xlink="http://www.w3.org/1999/xlink" viewBox="0 0 540 500"><defs><style>.cls-1{mask:url(#mask);}.cls-2{fill:url(#linear-gradient);}.cls-2,.cls-3,.cls-4{stroke-width:0px;}.cls-5{opacity:.2;}.cls-3{fill:#99cd44;}.cls-4{fill:#666;}</style><linearGradient id="linear-gradient" x1="254.48" y1="500" x2="254.48" y2="380.14" gradientUnits="userSpaceOnUse"><stop offset="0" stop-color="#000"/><stop offset="1" stop-color="#fff"/></linearGradient><mask id="mask" x="59.87" y="380.14" width="389.23" height="380.73" maskUnits="userSpaceOnUse"><rect class="cls-2" x="59.87" y="380.14" width="389.23" height="119.86"/></mask></defs><path class="cls-4" d="m414.96,350.88c-2.65-13.98-13.76-24.66-27.86-26.16-6.15-.65-12.4-.54-18.6-.57-16.59-.09-33.16-.14-49.74-.1-30.51.06-61.02.22-91.53.31-15.77.05-31.54.03-47.31.05h-1.57c.19-.55.29-.95.45-1.33,3.83-8.79,7.66-17.59,11.5-26.38,1.87-4.29,3.74-8.59,5.58-12.9.35-.83.81-1.21,1.76-1.32,4.72-.55,9.41-1.26,14.13-1.78,13.36-1.49,26.71-2.97,40.08-4.34,14.23-1.45,28.47-2.75,42.71-4.11,11.87-1.13,23.76-2.21,35.63-3.38,11.17-1.09,22.34-2.28,33.5-3.42,8.64-.88,17.3-1.7,25.93-2.66,6.33-.7,8.77-2.84,9.69-9.14,2.3-15.58,4.42-31.19,6.52-46.8,1.24-9.18,2.37-18.39,3.48-27.6.34-2.88.63-5.8.68-8.7.06-3.99-1.69-6.48-5.15-7.78-1.16-.44-2.33-.89-3.55-1.07-5.49-.82-10.98-1.66-16.49-2.33-10.07-1.21-20.16-2.3-30.23-3.48-.9-.11-1.8-.22-2.71-.33-.77-.09-1.55.16-2.12.7-5.52,5.16-11.11,10.17-16.63,15.09-.84.75-.39,2.14.73,2.27,5.16.58,10.29,1.17,15.41,1.74.02,0,.03.02.03.04v16.75s-.02.04-.04.04c-9.29-.46-18.34-.92-27.62-1.38-.02,0-.03-.02-.03-.03-.1-1.81-.21-3.62-.31-5.43-.08-1.32-1.65-1.96-2.63-1.07-.75.67-1.49,1.35-2.22,2.02-4.04,3.67-8.14,7.36-12.2,11-1.05.94-.44,2.67.97,2.75,2.3.12,4.6.25,6.92.37.02,0,.03.02.03.03.38,6.64.75,13.16,1.12,19.81,0,.02-.02.04-.04.04-8.3.18-16.4.34-24.61.52-.02,0-.03-.01-.04-.03-.26-1.84-.52-3.67-.77-5.5-.17-1.23-1.65-1.76-2.57-.93l-6.77,6.09c.04.31.08.6.12.91-3.84,0-7.44-.04-11.04,0-3.94.05-7.88.12-11.8.23-.83.03-1.29-.15-1.48-1.04-1.63-7.41-3.29-14.82-4.94-22.25l-.03-.15c-.15-.7-.52-1.34-1.07-1.82-2.25-1.98-7.72-6.76-10.34-8.9-.83-.67-1.85-1.07-2.91-1.12-2.81-.13-5.59-.25-8.36-.38-5.27-.25-10.54-.48-15.82-.79-.45-.02-1.18-.44-1.28-.81-2.35-8.59-4.62-17.21-6.99-26.14l.17-.14c2.14.86,3.52-1.69,2.06-3.03s-3-2.74-4.5-4.11c-4.76-4.36-8.95-8.85-12.58-13.49-.84-1.07-2.06-1.78-3.41-1.93-9.03-.99-18.07-1.97-27.12-2.88-1.49-.15-2.14-.64-2.55-2.04-2.55-8.64-5.19-17.24-7.77-25.86-1.6-5.35-4.48-9.37-10.5-10.03-2.79-.31-5.6-.62-8.39-.61-11.06.03-22.13.19-33.19.28-5.18.04-10.37-.11-15.55.05-3.69.11-7.22,1.01-9.41,4.5-3.94,6.27.43,14.49,7.79,15.24,5.84.59,11.75.74,17.63.73,10.74-.03,21.48-.35,32.22-.57.91-.02,1.29.26,1.56,1.16,4.51,14.85,8.97,29.72,13.63,44.53,4.69,14.85,9.59,29.65,14.42,44.46,6.33,19.43,12.49,38.92,19.12,58.24,2.4,7,2.27,13.3-1.06,19.92-4.43,8.82-8.39,17.87-12.49,26.85-1.95,4.26-3.72,8.61-5.61,12.91-.79,1.79-1.87,3.16-4.01,3.6-5.64,1.17-10.35,4.24-14.19,8.3-8.38,8.82-11.02,19.47-8.46,31.29,3,13.9,14.4,23.65,29.42,25.07,18.47,1.75,36.04-10.91,35.25-34.04-.14-4-.86-7.98-1.31-12.01,0-.02.01-.04.04-.04h157.47s.04.02.04.04c-.39,4.91-1.11,9.67-1.09,14.42.04,9.52,3.24,17.93,10.78,24,10.76,8.69,22.76,10.12,35.54,4.83,6.78-2.82,11.76-7.65,15.24-13.99,3.96-7.19,4.77-14.91,3.25-22.92Zm-55.49-174.14c9.78,1.1,19.25,2.15,28.93,3.24.02,0,.03.02.03.04-.37,4.71-.73,9.28-1.1,14.04,0,.02-.02.03-.04.03-9.38-.44-18.65-.88-27.84-1.32-.02,0-.03-.02-.03-.04v-15.96s.02-.04.04-.04Zm-.82,26.21c9.06.39,17.96.77,27.06,1.15.02,0,.04.02.03.04-.11,1.75-.14,3.37-.32,4.98-.28,2.35-.66,4.7-1.01,7.04-.33,2.18-.71,2.6-2.9,2.65-6.74.17-13.47.26-20.22.37-.84.02-1.68,0-2.65,0-.02,0-.04-.01-.04-.03,0-.8,0-15.36,0-16.17,0-.02.02-.03.04-.03Zm-.89,26.46c8.34-.24,16.46-.46,24.73-.7.02,0,.04.02.04.04-.66,4.88-1.27,9.54-1.96,14.19-.07.49-.54.93-1.03.98-7.12.72-14.25,1.39-21.37,2.06-.15,0-.31-.04-.44-.06v-16.47s.02-.04.04-.04Zm-10.55,17.78c-7.35.73-14.65,1.44-22.17,2.18-.02,0-.04-.01-.04-.03-.33-6.44-.66-12.69-1-19.28,0-.02.02-.04.04-.04,7.85-.18,15.66-.34,23.7-.52.02,0,.04.02.04.04-.18,5.93-.36,11.67-.54,17.62,0,.02-.01.03-.03.04Zm1.09-44.99v17.27s-.02.04-.04.04c-8.3.18-16.34.34-24.59.52-.02,0-.04-.01-.04-.03-.5-6.39-.97-12.59-1.47-19.05,0-.02.02-.04.04-.04,8.8.42,17.46.85,26.05,1.27.02,0,.03.02.03.04Zm-34.38,28.11c.43,6.69.87,13.35,1.31,20.18,0,.02-.01.04-.03.04-7.36.7-14.56,1.39-21.97,2.11-.02,0-.04-.01-.04-.03-1.01-7.25-2-14.41-3.03-21.79,0-.02.01-.04.04-.04,7.93-.17,15.66-.33,23.69-.5.02,0,.04.01.04.03Zm-33.85,1.11c1.01,7.21,2.04,14.6,3.1,22.2,0,.02-.01.04-.03.04-7.33.73-14.53,1.45-21.82,2.17-.02,0-.04-.01-.04-.03-1.63-8.13-3.21-16.07-4.87-24.37,0-.02.01-.04.04-.04h23.59s.03.01.04.03Zm-117.31,139.16c-7.73,0-13.56-5.27-13.56-12.24,0-8.15,5.21-13.62,12.99-13.63,7.78-.02,13.84,5.48,13.79,12.47-.07,7.82-5.58,13.4-13.21,13.4Zm83.26-138c1.8,8.03,3.53,16.07,5.35,24.39,0,.02-.01.04-.03.04-7.41.7-14.61,1.38-21.92,2.07-.02,0-.03,0-.04-.03-2.26-8.94-4.47-17.71-6.74-26.68,0-.02.01-.04.03-.05,4.76-.11,9.31-.22,13.87-.33,2.74-.06,5.49-.19,8.25-.19.43,0,1.17.43,1.24.77Zm-33.24-37.06c.53,0,1.09-.02,1.65,0,7.49.31,14.98.67,22.48.93,1.49.05,2.08.54,2.37,2.06,1.39,7.36,2.93,14.7,4.4,22.03.06.31.09.63.19,1.37-3.06,0-6-.05-8.96,0-4.58.09-9.16.24-13.75.39-.87.03-1.45-.07-1.73-1.14-2.2-8.39-4.46-16.75-6.7-25.14-.03-.09.02-.2.06-.51Zm-2.81,36.94c.99-.04,1.72.11,2.17,1.19,3.48,8.46,5.65,17.25,7.09,26.52,0,.02-.01.04-.03.04-7.34.73-14.54,1.44-21.91,2.17-.02,0-.03,0-.04-.02-3.3-9.72-6.58-19.41-10.05-29.62,0-.02,0-.05.03-.05,5.17,0,9.99.03,14.81,0,2.64-.02,5.28-.11,7.92-.21Zm-48.06-78.89s.01-.05.04-.05c2.87.28,5.53.53,8.17.82,6.71.72,13.42,1.48,20.12,2.17.88.09,1.37.34,1.61,1.21,2.36,8.64,4.74,17.26,7.12,25.89.05.15,0,.32,0,.66-9.22-.39-18.4-.78-27.65-1.17-.02,0-.03-.01-.03-.03-3.12-9.81-6.22-19.54-9.39-29.51Zm13.02,40.62c-.06-.19-.06-.41-.1-.78,4,.17,7.92.33,11.84.5,4.48.19,8.94.44,13.42.57,1.38.05,2.01.43,2.39,1.91,1.85,7.36,3.91,14.67,5.84,22.01.34,1.28.44,2.61.72,4.29,0,.02-.01.04-.04.04-3.88,0-7.36-.03-10.84,0-4.21.05-8.41.15-12.62.24-.79.02-1.39.05-1.71-.96-2.93-9.29-5.92-18.56-8.89-27.83Zm207.74,176.35c-7.93.04-13.27-5.13-13.31-12.87-.04-7.47,5.59-12.91,13.38-12.94,7.76-.05,13.08,5.19,13.12,12.9.03,7.47-5.49,12.87-13.18,12.92Z"/><path class="cls-3" d="m276.69,48.7c6.09-5.85,11.88-13.01,19.14-18.11,30.29-21.26,72.61-4.8,79.02,31.24,4.68,26.27-1.59,50.69-20.82,69.99-15.54,15.6-32.41,29.88-48.73,44.7-9.38,8.52-18.84,16.95-28.31,25.47-23.75-21.31-47.66-42.45-71.19-64.01-12.57-11.51-22.15-25.19-25.51-42.35-2.28-11.65-3.77-23.38-.89-35.19,9.1-37.38,54.02-51.91,83.16-26.7,5.42,4.69,9.91,10.44,14.14,14.96Z"/><g class="cls-1"><g class="cls-5"><path class="cls-4" d="m411.71,408.21c-3.48-6.34-8.46-11.17-15.24-13.99-12.79-5.29-24.79-3.86-35.54,4.83-7.53,6.07-10.74,14.48-10.78,24-.02,4.76.7,9.52,1.09,14.42,0,.02-.02.04-.04.04h-157.47s-.04-.02-.04-.04c.45-4.04,1.17-8.02,1.31-12.01.8-23.13-16.78-35.79-35.25-34.04-15.02,1.42-26.42,11.17-29.42,25.07-2.56,11.82.08,22.47,8.46,31.29,3.85,4.06,8.55,7.13,14.19,8.3,2.14.44,3.22,1.81,4.01,3.6,1.89,4.3,3.67,8.64,5.61,12.91,4.1,8.98,8.06,18.03,12.49,26.85,3.33,6.62,3.46,12.92,1.06,19.92-6.63,19.33-12.8,38.81-19.12,58.24-4.83,14.81-9.73,29.6-14.42,44.46-4.66,14.81-9.12,29.68-13.63,44.53-.27.9-.65,1.18-1.56,1.16-10.74-.22-21.48-.55-32.22-.57-5.87,0-11.78.14-17.63.73-7.37.74-11.73,8.97-7.79,15.24,2.19,3.5,5.72,4.39,9.41,4.5,5.18.16,10.37,0,15.55.05,11.06.08,22.13.25,33.19.28,2.79,0,5.6-.31,8.39-.61,6.02-.67,8.89-4.69,10.5-10.03,2.59-8.62,5.23-17.22,7.77-25.86.41-1.4,1.06-1.89,2.55-2.04,9.05-.91,18.09-1.89,27.12-2.88,1.35-.15,2.57-.85,3.41-1.93,3.62-4.63,7.82-9.12,12.58-13.49,1.5-1.37,3-2.74,4.5-4.11s.09-3.89-2.06-3.03l-.17-.14c2.37-8.93,4.65-17.55,6.99-26.14.1-.37.82-.79,1.28-.81,5.27-.31,10.54-.54,15.82-.79,2.78-.13,5.56-.25,8.36-.38,1.06-.05,2.09-.44,2.91-1.12,2.61-2.14,8.08-6.92,10.34-8.9.54-.48.91-1.11,1.07-1.82l.03-.15c1.65-7.42,3.31-14.83,4.94-22.25.19-.89.65-1.07,1.48-1.04,3.93.11,7.87.19,11.8.23,3.59.04,7.2,0,11.04,0-.04.31-.08.6-.12.91l6.77,6.09c.92.83,2.4.29,2.57-.93.26-1.83.51-3.66.77-5.5,0-.02.02-.03.04-.03,8.21.18,16.32.34,24.61.52.02,0,.04.02.04.04-.37,6.66-.74,13.18-1.12,19.81,0,.02-.02.03-.03.03-2.31.12-4.62.25-6.92.37-1.41.08-2.02,1.81-.97,2.75,4.06,3.64,8.16,7.33,12.2,11,.74.67,1.48,1.34,2.22,2.02.98.89,2.55.24,2.63-1.07.11-1.81.21-3.62.31-5.43,0-.02.02-.03.03-.03,9.29-.46,18.34-.92,27.62-1.38.02,0,.04.02.04.04v16.75s-.01.03-.03.04c-5.12.58-10.25,1.16-15.41,1.74-1.12.13-1.57,1.52-.73,2.27,5.52,4.91,11.1,9.93,16.63,15.09.57.53,1.35.79,2.12.7.9-.11,1.81-.22,2.71-.33,10.07-1.19,20.16-2.27,30.23-3.48,5.51-.67,11-1.5,16.49-2.33,1.21-.19,2.39-.64,3.55-1.07,3.47-1.31,5.21-3.79,5.15-7.78-.05-2.9-.33-5.82-.68-8.7-1.11-9.21-2.24-18.42-3.48-27.6-2.1-15.61-4.23-31.22-6.52-46.8-.93-6.29-3.36-8.43-9.69-9.14-8.64-.96-17.29-1.78-25.93-2.66-11.16-1.14-22.33-2.33-33.5-3.42-11.87-1.17-23.76-2.25-35.63-3.38-14.24-1.36-28.48-2.67-42.71-4.11-13.37-1.36-26.72-2.84-40.08-4.34-4.72-.52-9.41-1.23-14.13-1.78-.95-.11-1.41-.49-1.76-1.32-1.83-4.31-3.71-8.61-5.58-12.9-3.84-8.79-7.67-17.59-11.5-26.38-.17-.38-.27-.79-.45-1.33h1.57c15.77.02,31.54,0,47.31.05,30.51.08,61.02.24,91.53.31,16.58.04,33.15,0,49.74-.1,6.2-.04,12.44.07,18.6-.57,14.1-1.5,25.21-12.17,27.86-26.16,1.52-8.01.7-15.73-3.25-22.92Zm-52.28,197.03v-15.96s.02-.04.03-.04c9.19-.44,18.46-.88,27.84-1.32.02,0,.04.01.04.03.37,4.76.73,9.33,1.1,14.04,0,.02-.01.04-.03.04-9.68,1.09-19.16,2.14-28.93,3.24-.02,0-.04-.01-.04-.04Zm-.82-26.21c0-.81,0-15.37,0-16.17,0-.02.02-.03.04-.03.97,0,1.81,0,2.65,0,6.75.11,13.48.2,20.22.37,2.19.05,2.57.47,2.9,2.65.35,2.34.73,4.69,1.01,7.04.18,1.61.21,3.24.32,4.98,0,.02-.01.04-.03.04-9.1.38-18,.76-27.06,1.15-.02,0-.04-.01-.04-.03Zm-.89-26.46v-16.47c.13-.03.29-.07.44-.06,7.12.68,14.25,1.34,21.37,2.06.49.05.95.49,1.03.98.69,4.64,1.3,9.31,1.96,14.19,0,.02-.01.04-.04.04-8.27-.24-16.39-.46-24.73-.7-.02,0-.04-.02-.04-.04Zm-10.48-17.71c.18,5.94.36,11.68.54,17.62,0,.02-.02.04-.04.04-8.04-.18-15.85-.34-23.7-.52-.02,0-.04-.02-.04-.04.34-6.59.66-12.84,1-19.28,0-.02.02-.04.04-.03,7.52.74,14.82,1.45,22.17,2.18.02,0,.03.02.03.04Zm1.02,44.99c-8.59.42-17.25.84-26.05,1.27-.02,0-.04-.02-.04-.04.5-6.46.97-12.66,1.47-19.05,0-.02.02-.03.04-.03,8.25.18,16.29.34,24.59.52.02,0,.04.02.04.04v17.27s-.02.04-.03.04Zm-34.38-28.11c-8.03-.17-15.76-.33-23.69-.5-.02,0-.04-.02-.04-.04,1.02-7.39,2.02-14.54,3.03-21.79,0-.02.02-.03.04-.03,7.42.71,14.61,1.4,21.97,2.11.02,0,.03.02.03.04-.44,6.83-.88,13.49-1.31,20.18,0,.02-.02.03-.04.03Zm-33.85-1.11h-23.59s-.04-.02-.04-.04c1.65-8.29,3.24-16.24,4.87-24.37,0-.02.02-.03.04-.03,7.3.72,14.49,1.44,21.82,2.17.02,0,.04.02.03.04-1.06,7.59-2.1,14.98-3.1,22.2,0,.02-.02.03-.04.03Zm-104.06-125.79c.06,7-6,12.49-13.79,12.47-7.78,0-13-5.48-12.99-13.63,0-6.97,5.84-12.23,13.56-12.24,7.63,0,13.14,5.58,13.21,13.4Zm68.81,125.37c-2.75,0-5.5-.12-8.25-.19-4.56-.11-9.12-.22-13.87-.33-.02,0-.04-.02-.03-.05,2.27-8.97,4.48-17.74,6.74-26.68,0-.02.02-.03.04-.03,7.31.69,14.52,1.37,21.92,2.07.02,0,.04.02.03.04-1.81,8.32-3.54,16.36-5.35,24.39-.07.34-.82.77-1.24.77Zm-32.05,35.78c2.24-8.39,4.5-16.75,6.7-25.14.28-1.07.86-1.17,1.73-1.14,4.59.15,9.17.3,13.75.39,2.96.06,5.9,0,8.96,0-.09.74-.12,1.06-.19,1.37-1.47,7.34-3.01,14.68-4.4,22.03-.29,1.52-.88,2.01-2.37,2.06-7.5.26-14.99.61-22.48.93-.56.02-1.12,0-1.65,0-.04-.31-.08-.42-.06-.51Zm-10.67-36.65c-4.82-.04-9.64,0-14.81,0-.02,0-.04-.02-.03-.05,3.47-10.21,6.75-19.9,10.05-29.62,0-.02.02-.03.04-.02,7.37.73,14.57,1.44,21.91,2.17.02,0,.04.02.03.04-1.45,9.27-3.61,18.06-7.09,26.52-.44,1.07-1.18,1.22-2.17,1.19-2.64-.1-5.28-.19-7.92-.21Zm-30.75,49.59s.02-.02.03-.03c9.25-.39,18.43-.78,27.65-1.17,0,.34.04.51,0,.66-2.37,8.63-4.75,17.25-7.12,25.89-.24.87-.73,1.12-1.61,1.21-6.71.69-13.42,1.45-20.12,2.17-2.64.29-5.3.53-8.17.82-.03,0-.05-.02-.04-.05,3.17-9.97,6.27-19.69,9.39-29.51Zm12.52-38.95c.32-1.01.93-.98,1.71-.96,4.21.09,8.41.19,12.62.24,3.48.04,6.96,0,10.84,0,.02,0,.04.02.04.04-.27,1.68-.38,3.02-.72,4.29-1.93,7.34-3.98,14.65-5.84,22.01-.38,1.48-1.01,1.86-2.39,1.91-4.48.13-8.94.38-13.42.57-3.92.17-7.84.33-11.84.5.05-.37.04-.58.1-.78,2.96-9.27,5.96-18.54,8.89-27.83Zm212.04-135.6c-.04,7.71-5.36,12.94-13.12,12.9-7.79-.04-13.42-5.48-13.38-12.94.05-7.74,5.38-12.91,13.31-12.87,7.69.05,13.21,5.45,13.18,12.92Z"/></g></g></svg>