<?xml version="1.0" encoding="UTF-8"?><svg id="Layer_1" xmlns="http://www.w3.org/2000/svg" xmlns:xlink="http://www.w3.org/1999/xlink" viewBox="0 0 540 500"><defs><style>.cls-1{mask:url(#mask);}.cls-2{fill:url(#linear-gradient);}.cls-2,.cls-3,.cls-4{stroke-width:0px;}.cls-5{opacity:.2;}.cls-3{fill:#99cd44;}.cls-4{fill:#666;}</style><linearGradient id="linear-gradient" x1="254.48" y1="500" x2="254.48" y2="380.14" gradientUnits="userSpaceOnUse"><stop offset="0" stop-color="#000"/><stop offset="1" stop-color="#fff"/></linearGradient><mask id="mask" x="59.87" y="380.14" width="389.23" height="380.73" maskUnits="userSpaceOnUse"><rect class="cls-2" x="59.87" y="380.14" width="389.23" height="119.86"/></mask></defs><g class="cls-1"><g class="cls-5"><path class="cls-4" d="m411.71,408.21c-3.48-6.34-8.46-11.17-15.24-13.99-12.79-5.29-24.79-3.86-35.54,4.83-7.53,6.07-10.74,14.48-10.78,24-.02,4.76.7,9.52,1.09,14.42,0,.02-.02.04-.04.04h-157.47s-.04-.02-.04-.04c.45-4.04,1.17-8.02,1.31-12.01.8-23.13-16.78-35.79-35.25-34.04-15.02,1.42-26.42,11.17-29.42,25.07-2.56,11.82.08,22.47,8.46,31.29,3.85,4.06,8.55,7.13,14.19,8.3,2.14.44,3.22,1.81,4.01,3.6,1.89,4.3,3.67,8.64,5.61,12.91,4.1,8.98,8.06,18.03,12.49,26.85,3.33,6.62,3.46,12.92,1.06,19.92-6.63,19.33-12.8,38.81-19.12,58.24-4.83,14.81-9.73,29.6-14.42,44.46-4.66,14.81-9.12,29.68-13.63,44.53-.27.9-.65,1.18-1.56,1.16-10.74-.22-21.48-.55-32.22-.57-5.87,0-11.78.14-17.63.73-7.37.74-11.73,8.97-7.79,15.24,2.19,3.5,5.72,4.39,9.41,4.5,5.18.16,10.37,0,15.55.05,11.06.08,22.13.25,33.19.28,2.79,0,5.6-.31,8.39-.61,6.02-.67,8.89-4.69,10.5-10.03,2.59-8.62,5.23-17.22,7.77-25.86.41-1.4,1.06-1.89,2.55-2.04,9.05-.91,18.09-1.89,27.12-2.88,1.35-.15,2.57-.85,3.41-1.93,3.62-4.63,7.82-9.12,12.58-13.49,1.5-1.37,3-2.74,4.5-4.11s.09-3.89-2.06-3.03l-.17-.14c2.37-8.93,4.65-17.55,6.99-26.14.1-.37.82-.79,1.28-.81,5.27-.31,10.54-.54,15.82-.79,2.78-.13,5.56-.25,8.36-.38,1.06-.05,2.09-.44,2.91-1.12,2.61-2.14,8.08-6.92,10.34-8.9.54-.48.91-1.11,1.07-1.82l.03-.15c1.65-7.42,3.31-14.83,4.94-22.25.19-.89.65-1.07,1.48-1.04,3.93.11,7.87.19,11.8.23,3.59.04,7.2,0,11.04,0-.04.31-.08.6-.12.91l6.77,6.09c.92.83,2.4.29,2.57-.93.26-1.83.51-3.66.77-5.5,0-.02.02-.03.04-.03,8.21.18,16.32.34,24.61.52.02,0,.04.02.04.04-.37,6.66-.74,13.18-1.12,19.81,0,.02-.02.03-.03.03-2.31.12-4.62.25-6.92.37-1.41.08-2.02,1.81-.97,2.75,4.06,3.64,8.16,7.33,12.2,11,.74.67,1.48,1.34,2.22,2.02.98.89,2.55.24,2.63-1.07.11-1.81.21-3.62.31-5.43,0-.02.02-.03.03-.03,9.29-.46,18.34-.92,27.62-1.38.02,0,.04.02.04.04v16.75s-.01.03-.03.04c-5.12.58-10.25,1.16-15.41,1.74-1.12.13-1.57,1.52-.73,2.27,5.52,4.91,11.1,9.93,16.63,15.09.57.53,1.35.79,2.12.7.9-.11,1.81-.22,2.71-.33,10.07-1.19,20.16-2.27,30.23-3.48,5.51-.67,11-1.5,16.49-2.33,1.21-.19,2.39-.64,3.55-1.07,3.47-1.31,5.21-3.79,5.15-7.78-.05-2.9-.33-5.82-.68-8.7-1.11-9.21-2.24-18.42-3.48-27.6-2.1-15.61-4.23-31.22-6.52-46.8-.93-6.29-3.36-8.43-9.69-9.14-8.64-.96-17.29-1.78-25.93-2.66-11.16-1.14-22.33-2.33-33.5-3.42-11.87-1.17-23.76-2.25-35.63-3.38-14.24-1.36-28.48-2.67-42.71-4.11-13.37-1.36-26.72-2.84-40.08-4.34-4.72-.52-9.41-1.23-14.13-1.78-.95-.11-1.41-.49-1.76-1.32-1.83-4.31-3.71-8.61-5.58-12.9-3.84-8.79-7.67-17.59-11.5-26.38-.17-.38-.27-.79-.45-1.33h1.57c15.77.02,31.54,0,47.31.05,30.51.08,61.02.24,91.53.31,16.58.04,33.15,0,49.74-.1,6.2-.04,12.44.07,18.6-.57,14.1-1.5,25.21-12.17,27.86-26.16,1.52-8.01.7-15.73-3.25-22.92Zm-52.28,197.03v-15.96s.02-.04.03-.04c9.19-.44,18.46-.88,27.84-1.32.02,0,.04.01.04.03.37,4.76.73,9.33,1.1,14.04,0,.02-.01.04-.03.04-9.68,1.09-19.16,2.14-28.93,3.24-.02,0-.04-.01-.04-.04Zm-.82-26.21c0-.81,0-15.37,0-16.17,0-.02.02-.03.04-.03.97,0,1.81,0,2.65,0,6.75.11,13.48.2,20.22.37,2.19.05,2.57.47,2.9,2.65.35,2.34.73,4.69,1.01,7.04.18,1.61.21,3.24.32,4.98,0,.02-.01.04-.03.04-9.1.38-18,.76-27.06,1.15-.02,0-.04-.01-.04-.03Zm-.89-26.46v-16.47c.13-.03.29-.07.44-.06,7.12.68,14.25,1.34,21.37,2.06.49.05.95.49,1.03.98.69,4.64,1.3,9.31,1.96,14.19,0,.02-.01.04-.04.04-8.27-.24-16.39-.46-24.73-.7-.02,0-.04-.02-.04-.04Zm-10.48-17.71c.18,5.94.36,11.68.54,17.62,0,.02-.02.04-.04.04-8.04-.18-15.85-.34-23.7-.52-.02,0-.04-.02-.04-.04.34-6.59.66-12.84,1-19.28,0-.02.02-.04.04-.03,7.52.74,14.82,1.45,22.17,2.18.02,0,.03.02.03.04Zm1.02,44.99c-8.59.42-17.25.84-26.05,1.27-.02,0-.04-.02-.04-.04.5-6.46.97-12.66,1.47-19.05,0-.02.02-.03.04-.03,8.25.18,16.29.34,24.59.52.02,0,.04.02.04.04v17.27s-.02.04-.03.04Zm-34.38-28.11c-8.03-.17-15.76-.33-23.69-.5-.02,0-.04-.02-.04-.04,1.02-7.39,2.02-14.54,3.03-21.79,0-.02.02-.03.04-.03,7.42.71,14.61,1.4,21.97,2.11.02,0,.03.02.03.04-.44,6.83-.88,13.49-1.31,20.18,0,.02-.02.03-.04.03Zm-33.85-1.11h-23.59s-.04-.02-.04-.04c1.65-8.29,3.24-16.24,4.87-24.37,0-.02.02-.03.04-.03,7.3.72,14.49,1.44,21.82,2.17.02,0,.04.02.03.04-1.06,7.59-2.1,14.98-3.1,22.2,0,.02-.02.03-.04.03Zm-104.06-125.79c.06,7-6,12.49-13.79,12.47-7.78,0-13-5.48-12.99-13.63,0-6.97,5.84-12.23,13.56-12.24,7.63,0,13.14,5.58,13.21,13.4Zm68.81,125.37c-2.75,0-5.5-.12-8.25-.19-4.56-.11-9.12-.22-13.87-.33-.02,0-.04-.02-.03-.05,2.27-8.97,4.48-17.74,6.74-26.68,0-.02.02-.03.04-.03,7.31.69,14.52,1.37,21.92,2.07.02,0,.04.02.03.04-1.81,8.32-3.54,16.36-5.35,24.39-.07.34-.82.77-1.24.77Zm-32.05,35.78c2.24-8.39,4.5-16.75,6.7-25.14.28-1.07.86-1.17,1.73-1.14,4.59.15,9.17.3,13.75.39,2.96.06,5.9,0,8.96,0-.09.74-.12,1.06-.19,1.37-1.47,7.34-3.01,14.68-4.4,22.03-.29,1.52-.88,2.01-2.37,2.06-7.5.26-14.99.61-22.48.93-.56.02-1.12,0-1.65,0-.04-.31-.08-.42-.06-.51Zm-10.67-36.65c-4.82-.04-9.64,0-14.81,0-.02,0-.04-.02-.03-.05,3.47-10.21,6.75-19.9,10.05-29.62,0-.02.02-.03.04-.02,7.37.73,14.57,1.44,21.91,2.17.02,0,.04.02.03.04-1.45,9.27-3.61,18.06-7.09,26.52-.44,1.07-1.18,1.22-2.17,1.19-2.64-.1-5.28-.19-7.92-.21Zm-30.75,49.59s.02-.02.03-.03c9.25-.39,18.43-.78,27.65-1.17,0,.34.04.51,0,.66-2.37,8.63-4.75,17.25-7.12,25.89-.24.87-.73,1.12-1.61,1.21-6.71.69-13.42,1.45-20.12,2.17-2.64.29-5.3.53-8.17.82-.03,0-.05-.02-.04-.05,3.17-9.97,6.27-19.69,9.39-29.51Zm12.52-38.95c.32-1.01.93-.98,1.71-.96,4.21.09,8.41.19,12.62.24,3.48.04,6.96,0,10.84,0,.02,0,.04.02.04.04-.27,1.68-.38,3.02-.72,4.29-1.93,7.34-3.98,14.65-5.84,22.01-.38,1.48-1.01,1.86-2.39,1.91-4.48.13-8.94.38-13.42.57-3.92.17-7.84.33-11.84.5.05-.37.04-.58.1-.78,2.96-9.27,5.96-18.54,8.89-27.83Zm212.04-135.6c-.04,7.71-5.36,12.94-13.12,12.9-7.79-.04-13.42-5.48-13.38-12.94.05-7.74,5.38-12.91,13.31-12.87,7.69.05,13.21,5.45,13.18,12.92Z"/></g></g><path class="cls-3" d="m178.14,325.53c.62,0,1.1,0,1.58,0,15.93-.01,31.86,0,47.78-.04,30.82-.09,61.63-.25,92.45-.31,16.75-.04,33.49,0,50.24.11,6.26.04,12.57-.08,18.78.58,14.24,1.52,25.47,12.29,28.14,26.42,1.53,8.09.71,15.89-3.28,23.15-3.52,6.4-8.55,11.29-15.4,14.13-12.92,5.35-25.03,3.9-35.9-4.87-7.6-6.13-10.85-14.64-10.88-24.25-.02-4.82.71-9.63,1.11-14.6h-159.14c.46,4.09,1.19,8.12,1.33,12.18.8,23.36-16.94,36.15-35.6,34.38-15.17-1.44-26.68-11.29-29.71-25.33-2.58-11.94.09-22.69,8.54-31.61,3.88-4.09,8.64-7.2,14.34-8.38,2.16-.45,3.26-1.83,4.05-3.64,1.91-4.34,3.71-8.73,5.67-13.04,4.14-9.07,8.13-18.21,12.61-27.11,3.37-6.69,3.5-13.05,1.07-20.13-6.7-19.52-12.92-39.2-19.32-58.82-4.88-14.96-9.82-29.9-14.56-44.91-4.72-14.95-9.22-29.97-13.77-44.97-.28-.91-.66-1.19-1.57-1.17-10.85.23-21.7.55-32.55.58-6.2.01-12.43-.15-18.58-.82-7.64-.82-11.21-9.27-6.89-15.62,2.23-3.28,5.69-4.12,9.31-4.24,5.23-.16,10.47-.01,15.7-.05,11.17-.08,22.34-.25,33.52-.28,2.83,0,5.66.31,8.47.62,6.08.67,8.99,4.73,10.6,10.13,2.61,8.71,5.27,17.4,7.85,26.12.42,1.41,1.07,1.91,2.57,2.06,11.66,1.17,23.31,2.45,34.96,3.74,9.86,1.09,19.72,2.22,29.58,3.38,10.83,1.27,21.65,2.59,32.47,3.89,11.85,1.43,23.7,2.86,35.54,4.31,10.28,1.26,20.55,2.55,30.83,3.81,12.01,1.47,24.02,2.94,36.03,4.36,10.18,1.2,20.37,2.29,30.54,3.53,5.57.67,11.11,1.51,16.66,2.35,1.22.19,2.42.64,3.59,1.08,3.5,1.32,5.26,3.83,5.2,7.86-.04,2.94-.33,5.88-.68,8.8-1.12,9.3-2.26,18.6-3.51,27.88-2.13,15.77-4.27,31.53-6.59,47.27-.94,6.35-3.4,8.51-9.79,9.22-8.72.97-17.46,1.79-26.19,2.69-11.28,1.15-22.56,2.35-33.85,3.46-11.99,1.18-23.99,2.27-35.99,3.42-14.38,1.37-28.77,2.69-43.14,4.15-13.5,1.37-26.99,2.88-40.48,4.38-4.77.53-9.51,1.25-14.28,1.8-.96.11-1.41.5-1.77,1.34-1.85,4.35-3.75,8.69-5.64,13.03-3.87,8.88-7.74,17.76-11.61,26.64-.17.38-.27.8-.46,1.34Zm-16.62-172.6c3.21,10.1,6.35,19.95,9.51,29.88,9.35.4,18.64.79,27.96,1.19,0-.35.04-.52,0-.67-2.4-8.72-4.81-17.43-7.19-26.15-.24-.88-.75-1.14-1.63-1.23-6.78-.7-13.55-1.46-20.32-2.19-2.69-.29-5.39-.54-8.31-.84Zm47.61,69.92c-.28-1.73-.39-3.08-.73-4.38-1.95-7.41-4.02-14.8-5.9-22.23-.38-1.49-1.02-1.88-2.41-1.92-4.52-.14-9.03-.38-13.55-.58-3.96-.17-7.92-.34-11.97-.51.05.38.04.59.1.79,3,9.37,6.02,18.73,8.98,28.11.32,1.02.94.99,1.73.98,4.25-.1,8.49-.2,12.74-.24,3.53-.04,7.06,0,11,0Zm-6.59-65.29c2.41,9.05,4.71,17.78,7.09,26.48.1.37.83.79,1.29.82,5.32.3,10.65.54,15.98.79,3.3.15,6.59.3,9.94.45-.04-.42-.04-.64-.08-.85-1.65-7.77-3.31-15.54-4.93-23.32-.19-.9-.68-1.05-1.46-1.14-6.33-.72-12.66-1.48-18.98-2.22-2.85-.33-5.71-.66-8.83-1.02Zm-15.47,75.34c3.51,10.34,6.83,20.15,10.17,29.99,7.47-.74,14.76-1.47,22.2-2.21-1.46-9.37-3.65-18.27-7.17-26.82-.45-1.09-1.18-1.24-2.19-1.2-2.67.1-5.33.2-8,.22-4.89.03-9.78,0-15.01,0Zm57.24-10.89c-.1-.74-.12-1.06-.19-1.38-1.49-7.42-3.04-14.82-4.45-22.26-.29-1.53-.89-2.03-2.4-2.08-7.57-.26-15.13-.61-22.7-.93-.56-.02-1.13,0-1.67,0-.03.31-.08.42-.05.52,2.26,8.46,4.55,16.92,6.76,25.39.28,1.07.87,1.18,1.75,1.15,4.63-.15,9.26-.3,13.89-.4,2.98-.06,5.96-.01,9.05-.01Zm-2.02-59.78c1.67,8.05,3.26,15.83,4.92,23.6.08.38.76.87,1.18.89,8.33.47,16.65.88,24.98,1.29.41.02.83-.04,1.26-.07,0-.34.03-.56,0-.77-.88-6.14-1.88-12.27-2.57-18.44-.24-2.14-1.27-2.92-3.1-3.2-5.11-.78-10.22-1.62-15.35-2.28-3.66-.47-7.36-.67-11.32-1.02Zm9.59,95.25c-1.83-8.43-3.58-16.56-5.4-24.68-.08-.35-.83-.78-1.26-.78-2.78,0-5.55.12-8.33.19-4.62.12-9.24.22-14.05.34,2.29,9.08,4.54,17.97,6.83,27.03,7.42-.7,14.71-1.39,22.21-2.1Zm27.5-36.05c-1.11-8.08-2.14-15.55-3.17-23.12-8.88-.42-17.62-.83-26.48-1.25.04.48.03.79.1,1.09,1.66,7.49,3.34,14.98,4.98,22.47.2.89.66,1.07,1.5,1.04,3.97-.11,7.95-.19,11.93-.23,3.63-.04,7.27,0,11.15,0Zm2.65-54.38c1,7.07,1.97,13.86,2.91,20.65.14,1,.76.99,1.51,1.03,5.6.27,11.2.57,16.8.85,3.08.15,6.16.29,9.37.44-.39-6.66-.76-13.09-1.14-19.59-9.86-1.13-19.52-2.24-29.45-3.38Zm-119.65,205.13c7.71,0,13.27-5.63,13.34-13.53.06-7.07-6.06-12.61-13.92-12.6-7.86.01-13.13,5.54-13.12,13.77,0,7.04,5.9,12.35,13.7,12.36Zm222.19-26.11c-7.87.04-13.55,5.53-13.51,13.08.04,7.82,5.43,13.04,13.44,13,7.77-.04,13.35-5.5,13.32-13.04-.04-7.78-5.42-13.07-13.25-13.03Zm-103.71-114.47h-23.91c1.68,8.41,3.29,16.45,4.94,24.69,7.39-.74,14.68-1.47,22.11-2.21-1.07-7.69-2.12-15.18-3.14-22.49Zm5.51-32.76c1.05,7.44,2.07,14.68,3.1,22.06,8.33-.18,16.53-.35,24.94-.53-.38-6.75-.76-13.35-1.14-20.08-8.99-.48-17.82-.96-26.9-1.45Zm64.42-23.85c-9.6-1.08-19.22-2.17-29.06-3.28.37,6.41.73,12.62,1.09,18.88,9.4.47,18.57.92,27.97,1.39v-16.98Zm-59.74,56c1.04,7.49,2.05,14.73,3.07,22.08,7.51-.72,14.81-1.42,22.26-2.13-.45-6.93-.89-13.68-1.33-20.46-8.13.17-15.97.34-24,.51Zm33.83-10.86c8.36-.18,16.5-.35,24.91-.53v-17.51c-8.7-.42-17.48-.85-26.39-1.28.5,6.55.99,12.84,1.49,19.32Zm65.45-40.45c-9.81-1.1-19.4-2.17-29.3-3.28v16.2c9.3.44,18.69.89,28.19,1.34.38-4.83.74-9.48,1.12-14.26Zm-41.06,50.01c-8.15.18-16.06.35-24.02.53.35,6.68.67,13.02,1.01,19.55,7.61-.75,15.01-1.48,22.45-2.21.19-6.03.36-11.85.55-17.87Zm10.94-10.42c.99,0,1.85.01,2.71,0,6.81-.12,13.61-.21,20.42-.37,2.21-.05,2.59-.48,2.92-2.68.36-2.37.74-4.73,1.02-7.11.19-1.64.22-3.3.33-5.07-9.22-.39-18.23-.77-27.41-1.16v16.4Zm-.9,27c.13.02.29.07.44.06,7.21-.68,14.41-1.35,21.62-2.09.37-.04.95-.57,1-.94.7-4.72,1.32-9.45,2-14.41-8.38.24-16.61.47-25.06.71v16.67Z"/></svg>