<?xml version="1.0" encoding="UTF-8"?>
<svg id="Layer_2" xmlns="http://www.w3.org/2000/svg" xmlns:xlink="http://www.w3.org/1999/xlink" version="1.1" viewBox="0 0 830.8 550.3">
  <!-- Generator: Adobe Illustrator 29.0.1, SVG Export Plug-In . SVG Version: 2.1.0 Build 192)  -->
  <defs>
    <style>
      .st0, .st1 {
        fill: none;
      }

      .st1 {
        stroke: #fff;
        stroke-miterlimit: 10;
      }

      .st2 {
        isolation: isolate;
      }

      .st3 {
        fill: #fff;
      }

      .st4 {
        clip-path: url(#clippath);
      }
    </style>
    <clipPath id="clippath">
      <polygon class="st0" points="810 95.2 161.4 95.2 39.3 441.2 810 441.2 810 95.2"/>
    </clipPath>
  </defs>
  <g id="Layer_2-2">
    <g class="st4">
      <g>
        <g class="st2">
          <g class="st2">
            <path class="st3" d="M117.1,360.6v56.8h-24.3v-139h85.9v22.4h-61.6v37.8h51.7v21.9h-51.7Z"/>
            <path class="st3" d="M182.5,278.4h24.3v86.7c0,20,10.8,31,30.6,31s30.8-11.2,30.8-31v-86.7h24.3v88.2c0,32.5-21.3,53-55.1,53s-54.9-20.3-54.9-53v-88.2Z"/>
            <path class="st3" d="M293.1,278.4h105.7v22.4h-40.7v116.5h-24.3v-116.5h-40.7v-22.4Z"/>
            <path class="st3" d="M399.4,278.4h24.3v86.7c0,20,10.8,31,30.6,31s30.8-11.2,30.8-31v-86.7h24.3v88.2c0,32.5-21.3,53-55.1,53s-54.9-20.3-54.9-53v-88.2Z"/>
            <path class="st3" d="M522.2,417.4v-139h53c31.6,0,50,16,50,43.3s-8.7,31.9-25.1,38.6l26.4,57h-26.6l-23.6-51.9h-29.8v51.9h-24.3ZM546.6,344h28.7c15.4,0,24.5-8.2,24.5-22.2s-9.1-21.7-24.5-21.7h-28.7v43.9Z"/>
            <path class="st3" d="M632.5,417.4v-139h86.3v22.4h-62v35.7h55.5v21.5h-55.5v36.9h62v22.4h-86.3Z"/>
            <path class="st3" d="M769.6,276c28.1,0,46,15.6,46.8,40.7h-24.3c-.6-12-9.1-19-22.8-19s-24.7,7.2-24.7,18.8,5.3,15.4,16.9,18.1l21.9,4.8c23.8,5.1,35.4,17.3,35.4,38s-20.2,42.6-50.8,42.6-49.1-15.8-49.6-40.7h24.3c.2,11.8,9.7,18.8,25.3,18.8s26.4-7,26.4-18.6-4.8-14.8-16.2-17.3l-22.1-4.9c-23.6-5.1-35.9-18.6-35.9-39.9s20.2-41.3,49.4-41.3Z"/>
          </g>
        </g>
        <g class="st2">
          <g class="st2">
            <path class="st3" d="M146.7,221.5v56.8h-24.3v-139h85.9v22.4h-61.6v37.8h51.7v21.9h-51.7Z"/>
          </g>
          <g class="st2">
            <path class="st3" d="M190.4,278.4l50.2-139h24.9l50.2,139h-25.7l-11.2-32.1h-51.9l-11.2,32.1h-25.3ZM234.2,225.7h37.6l-16-44.9c-1.1-3.6-2.5-7.8-2.9-10.6-.6,2.7-1.7,6.8-3,10.6l-15.8,44.9Z"/>
            <path class="st3" d="M357.6,136.9c28.1,0,46,15.6,46.8,40.7h-24.3c-.6-12-9.1-19-22.8-19s-24.7,7.2-24.7,18.8,5.3,15.4,16.9,18.1l21.9,4.8c23.8,5.1,35.4,17.3,35.4,38s-20.2,42.6-50.8,42.6-49.1-15.8-49.6-40.7h24.3c.2,11.8,9.7,18.8,25.3,18.8s26.4-7,26.4-18.6-4.8-14.8-16.2-17.3l-22.1-4.9c-23.6-5.1-35.9-18.6-35.9-39.9s20.2-41.3,49.4-41.3Z"/>
            <path class="st3" d="M411.6,278.4v-139h24.3v57.4h61.6v-57.4h24.3v139h-24.3v-58.9h-61.6v58.9h-24.3Z"/>
            <path class="st3" d="M559.9,278.4h-24.3v-139h24.3v139Z"/>
            <path class="st3" d="M632.7,280.7c-39.7,0-67.1-29.5-67.1-71.9s27.6-71.9,67.3-71.9,67.5,29.5,67.5,71.9-27.8,71.9-67.7,71.9ZM632.9,160.3c-25.5,0-41.8,18.8-41.8,48.5s16.4,48.5,41.8,48.5,41.8-19.2,41.8-48.5-16.4-48.5-41.8-48.5Z"/>
            <path class="st3" d="M705.9,278.4v-139h24.1l65.2,98.5v-98.5h24v139h-24l-65.4-98.5v98.5h-24Z"/>
          </g>
        </g>
      </g>
    </g>
    <line class="st1" x1=".5" y1="550.2" x2="194.6" y2=".2"/>
  </g>
</svg>