<?xml version="1.0" encoding="UTF-8"?>
<svg id="Layer_2" data-name="Layer 2" xmlns="http://www.w3.org/2000/svg" viewBox="0 0 192 192">
  <path d="M78.46,74.68c2.33.02,4.21-1.75,4.18-3.95-.03-2.2-1.83-3.93-4.09-3.92-2.41,0-4.13,1.66-4.14,3.97,0,2.22,1.72,3.89,4.05,3.91M72.53,76.13c-2.47-3.21-2.82-6.74-.94-9.51,2.2-3.24,5.8-4.18,10.81-2.76,1.03-2.5,3.1-3.03,5.64-2.79v3.49c-.49.03-.96.03-1.41.11-1.36.24-1.72,1.03-1.03,2.22,2.93,5.05-.56,11.31-6.39,11.43-1.02.02-2.05-.21-3.07-.2-.51,0-1.35.19-1.44.49-.17.55-.11,1.4.22,1.83.32.41,1.11.61,1.71.64,1.85.09,3.7,0,5.55.08,3.08.14,5.51,2.63,5.41,5.45-.04,1.19-.67,1.92-1.74,2.01-1.09.09-1.87-.51-2.12-1.62-.4-1.79-.8-2.1-2.62-2.1-1.76,0-3.53,0-5.29-.02-2.14-.02-4.11-.54-4.96-2.72-.87-2.22-.27-4.21,1.57-5.78.06-.05.08-.15.12-.22"/>
  <path d="M122.56,66.91c-3.07-.04-5.41,2.2-5.5,5.25-.09,2.97,2.3,5.43,5.31,5.47,3,.04,5.42-2.33,5.44-5.35.02-2.96-2.3-5.34-5.24-5.38M113.25,63.61h3.73c.03.69.06,1.31.1,2.23,2-2.05,4.29-3.01,6.98-2.7,2.66.3,4.79,1.55,6.25,3.84,2.51,3.96,1.79,9.48-1.65,12.45-2.45,2.12-7.37,3.37-11.63-.78v9.4h-3.78v-24.45Z"/>
  <path d="M18.49,77.84c.89-1.27,1.57-2.25,2.3-3.28,2.13,1.83,4.41,3.02,7.16,3.08,1.49.03,2.92-.17,4.12-1.15,1.33-1.09,1.45-2.78.02-3.69-1.27-.8-2.81-1.16-4.23-1.74-1.97-.8-4.11-1.36-5.87-2.49-3.5-2.25-3.43-7.27-.08-9.75,3.88-2.86,10.45-2.4,14.34,1.11-.63,1.01-1.28,2.04-1.93,3.08-2.46-1.94-5.14-2.85-8.21-2-1.54.43-2.38,1.38-2.38,2.53,0,1.44.98,2.17,2.15,2.59,1.49.53,3.07.8,4.54,1.35,1.47.55,2.99,1.14,4.26,2.04,3.48,2.46,3.54,7.2.14,9.77-3.84,2.9-8.04,2.56-12.22.91-1.41-.55-2.65-1.51-4.12-2.37"/>
  <path d="M38.01,129.64c-3.23,4.66-8.93,6.48-14.47,4.7-5.12-1.64-8.33-6.2-8.27-11.76.06-5.43,3.41-9.96,8.48-11.48,5.39-1.61,11.28.34,14.25,4.82-1.14.71-2.28,1.42-3.4,2.11-4.55-4.23-9.37-4.58-12.87-.99-3.12,3.2-2.97,8.48.23,11.73,2.62,2.66,8.59,3.62,12.61-1.24,1.1.68,2.22,1.37,3.43,2.11"/>
  <path d="M99.85,66.91c-3.1-.04-5.53,2.31-5.53,5.37,0,2.93,2.35,5.3,5.32,5.35,3.01.05,5.45-2.34,5.45-5.34,0-2.99-2.29-5.34-5.24-5.38M105.03,65.84c.05-.92.08-1.5.11-2.19h3.75v17.27h-3.73c-.04-.66-.08-1.31-.12-2.01-5.24,3.4-9.14,3.27-12.44-.35-2.91-3.19-2.98-9.03-.11-12.48,1.6-1.92,3.71-2.88,6.19-2.97,2.41-.09,4.51.73,6.34,2.74"/>
  <path d="M36.43,99.17c.04-2.94-2.32-5.38-5.24-5.41-3.07-.03-5.41,2.22-5.5,5.28-.09,2.95,2.28,5.41,5.31,5.51,2.9.09,5.39-2.38,5.43-5.39M36.39,92.59c.04-.79.07-1.42.1-2.11h3.73v17.38h-3.71c-.04-.7-.08-1.36-.14-2.3-2.12,2.38-4.67,2.99-7.48,2.62-2.14-.28-3.84-1.4-5.21-3.05-2.83-3.39-2.54-9.46.63-12.68,3.18-3.23,7.87-3.23,12.08.13"/>
  <path d="M183.11,70.53c-.32-2.24-2.32-3.85-4.76-3.88-2.46-.03-4.48,1.55-4.9,3.88h9.66ZM187.28,73.88h-13.87c.37,1.75,1.39,2.85,2.86,3.45,2.94,1.19,5.54.43,7.87-1.79.84.71,1.65,1.4,2.56,2.17-1.25,1.68-2.91,2.63-4.82,3.23-5.25,1.64-10.71-.92-12.32-5.76-1.23-3.7-.09-7.69,2.88-10.12,2.83-2.31,7.5-2.62,10.67-.71,3.24,1.96,4.88,5.61,4.16,9.52"/>
  <path d="M117.04,107.85h-3.8v-17.36h3.74c.04.58.07,1.13.12,1.85.35-.26.6-.44.84-.64,3.01-2.48,7.82-2.25,10.3.51,1.18,1.32,1.61,2.93,1.62,4.63.03,5.54.02,11.09,0,16.63,0,1.48-.78,2.35-1.99,2.35-1.23,0-1.88-.82-1.88-2.39,0-4.94,0-9.88-.01-14.83-.01-2.46-.97-4-2.77-4.6-3.29-1.1-6.11.96-6.17,4.57-.05,3.05-.01,6.1-.01,9.28"/>
  <path d="M75.15,107.81c0-3.23.04-6.36-.01-9.49-.06-3.46-2.71-5.35-5.96-4.31-1.76.56-2.75,1.91-2.77,3.88-.03,2.79,0,5.58,0,8.37v1.37c-1.31.08-2.53.16-3.81.24v-24.58h3.73v9.19c1.71-1.8,3.55-2.47,5.7-2.47,4.03.01,6.75,2.33,6.96,6.35.17,3.34.04,6.7.04,10.05,0,.43,0,.85,0,1.39h-3.88Z"/>
  <path d="M55.09,125.9c.02-3.2-2.19-5.44-5.38-5.44-2.84,0-5.2,2.37-5.24,5.26-.04,3.13,2.25,5.47,5.38,5.48,3.01.02,5.22-2.23,5.24-5.3M59.18,125.92c-.01,5.22-4.04,9.1-9.46,9.09-5.22,0-9.21-3.95-9.27-9.17-.06-5.21,4.04-9.13,9.53-9.12,5.27.01,9.2,3.95,9.19,9.19"/>
  <path d="M144.33,66.91c-3.05,0-5.4,2.31-5.39,5.33,0,2.98,2.3,5.34,5.24,5.39,3.09.06,5.42-2.3,5.41-5.44-.01-3.07-2.21-5.28-5.26-5.28M144.25,81.38c-5.31,0-9.22-3.84-9.3-9.09-.08-5.21,4.05-9.2,9.49-9.19,5.25.01,9.22,3.97,9.21,9.19,0,5.26-3.97,9.1-9.41,9.09"/>
  <path d="M105.8,99.06c-.02-3.05-2.36-5.33-5.44-5.3-2.91.04-5.25,2.43-5.27,5.39-.01,2.95,2.42,5.38,5.43,5.41,2.93.03,5.3-2.44,5.28-5.5M100.44,108.25c-5.38,0-9.27-3.81-9.27-9.09,0-5.2,3.94-9.14,9.12-9.12,5.64.02,9.52,3.73,9.53,9.1,0,5.33-3.88,9.1-9.37,9.11"/>
  <polygon points="8.63 88.08 8.63 94.25 18.21 94.25 18.21 98.16 8.65 98.16 8.65 107.82 4.55 107.82 4.55 84.34 19.62 84.34 19.62 88.08 8.63 88.08"/>
  <path d="M53.64,80.95h-3.78v-17.32h3.69c.05.56.11,1.13.17,1.86,2.15-2,4.53-2.76,7.29-2.22,3.07.6,5.17,2.63,5.33,5.74.2,3.93.05,7.88.05,11.91h-3.84c0-3.21.02-6.33,0-9.46-.03-3.55-2.88-5.51-6.17-4.25-1.52.58-2.53,1.7-2.59,3.35-.12,2.96-.09,5.92-.13,8.89,0,.46,0,.92,0,1.5"/>
  <path d="M87.49,117.21c.04.6.07,1.1.12,1.84,1.82-1.77,3.89-2.44,6.27-2.34,3.34.14,6.12,2.48,6.28,5.83.19,3.94.05,7.89.05,11.93h-3.85c0-3.16,0-6.29,0-9.41-.01-3.22-2.12-5-5.29-4.49-2.05.33-3.48,1.9-3.5,3.97-.03,3.26,0,6.52,0,9.9h-3.92v-17.23h3.85Z"/>
  <path d="M62.76,117.19h3.88c0,3.29-.01,6.51,0,9.72.02,3.25,2.59,5.08,5.69,4.07,1.64-.53,2.6-1.83,2.61-3.71.03-3.31,0-6.61,0-10.04h3.88c0,.61,0,1.24,0,1.87,0,2.71-.1,5.42.02,8.12.2,4.41-2.7,7.31-7.03,7.77-4.31.46-7.89-1.69-8.86-5.36-.05-.21-.13-.41-.14-.63-.04-.56-.06-1.12-.06-1.67,0-3.34,0-6.69,0-10.14"/>
  <path d="M118.44,123.1c-2.62-3.03-6.14-3.48-8.49-1.16-2.21,2.18-2.13,5.87.17,7.93,2.44,2.2,5.92,1.7,8.29-1.28,1.06.64,2.14,1.29,3.21,1.94-1.53,3.32-5.89,5.11-10.2,4.24-4.01-.8-7-4.43-7.06-8.56-.07-4.5,2.65-8.21,6.75-9.2,4.31-1.04,8.81.69,10.53,4.13-1.04.64-2.1,1.29-3.2,1.97"/>
  <path d="M58.16,92.33c-.73.97-1.38,1.82-2.08,2.74-1.68-1.29-3.49-1.93-5.55-1.57-.89.16-1.87.33-1.98,1.48-.1,1.15.83,1.54,1.68,1.81,1.71.54,3.49.88,5.18,1.49,1.89.68,3.05,2.05,3.12,4.15.06,2-.74,3.58-2.46,4.65-2.18,1.35-4.58,1.36-6.98,1.01-1.94-.28-3.68-1.1-5.12-2.54.66-.89,1.29-1.73,1.98-2.67,1.69,1.42,3.51,2.16,5.64,2,.13,0,.26,0,.39-.02,1.48-.13,2.55-.81,2.55-1.72,0-1.33-1.09-1.61-2.07-1.92-1.67-.52-3.41-.88-5.02-1.54-2.51-1.04-3.49-3.37-2.67-5.92.49-1.53,1.57-2.58,3.06-3.09,3.66-1.24,7.08-.79,10.34,1.66"/>
  <rect x="133.63" y="110.07" width="3.83" height="24.42"/>
  <path d="M161.11,80.93h-3.89v-17.31h3.82c.04.64.08,1.23.13,2.03,1.68-1.58,3.45-2.67,5.83-2.27v3.74c-.71.11-1.43.18-2.12.33-2.29.48-3.74,2.21-3.76,4.55-.03,2.92,0,5.84,0,8.93"/>
  <rect x="41.39" y="63.64" width="3.78" height="17.28"/>
  <path d="M87.5,107.86h-3.71v-17.59c1.22.84,2.44,1.02,3.71-.11v17.7Z"/>
  <path d="M129.77,134.52h-3.66v-17.1c1.19.92,2.39,1.08,3.66-.18v17.28Z"/>
  <path d="M43.14,61.04c-1.19-.06-1.86-.83-1.78-2.04.08-1.09.87-1.78,2-1.73,1.15.05,1.95.9,1.88,2.01-.07,1.13-.89,1.82-2.1,1.76"/>
</svg>