<?xml version="1.0" encoding="UTF-8"?>
<svg id="Layer_1" data-name="Layer 1" xmlns="http://www.w3.org/2000/svg" viewBox="0 0 192 192">
  <defs>
    <style>
      .cls-1 {
        fill: #6ea5b4;
      }

      .cls-1, .cls-2 {
        stroke-width: 0px;
      }

      .cls-2 {
        fill: #fefefe;
      }
    </style>
  </defs>
  <path class="cls-1" d="M186,94.06c-.19,22.96-6.72,41.97-20.01,58.37-14.96,18.46-34.44,29.51-58.02,32.58-27.14,3.54-51.28-3.94-71.89-21.87-14.1-12.27-23.31-28.03-27.46-46.07-6.1-26.48-1.66-51.65,14.46-73.76C41.6,17.94,67.13,5.45,98.66,6.16c47.66,1.07,86.95,39.56,87.34,87.9ZM97.43,50.75c-.61.27-.87.37-1.12.5-5.9,3.08-11.84,6.1-17.69,9.27-4.35,2.36-8.81,4.35-12.22,8.39-7.1,8.42-14.71,16.41-22.08,24.61-2.79,3.1-2.76,3.15-.81,6.87,4.79,9.15,9.63,18.29,14.38,27.46.65,1.24,1.16,1.36,2.34.63,9.19-5.66,18.43-11.23,27.63-16.89.97-.6,1.67-.58,2.66-.06,8.33,4.39,16.7,8.71,25.03,13.09.98.52,1.89.6,2.97.39,4.84-.93,9.69-1.83,14.55-2.64,1.55-.26,2.34-.97,2.87-2.44,2.68-7.39,5.42-14.76,8.23-22.1.47-1.23.37-2.11-.37-3.16-9.37-13.34-18.68-26.72-28.05-40.06-.82-1.17-1.44-2.54-2.79-3.56-.16.98-.29,1.76-.42,2.54-.9,5.72-1.82,11.44-2.67,17.16-.16,1.07-.55,1.25-1.6,1.08-4.47-.71-8.96-1.34-13.45-1.91-1.6-.2-1.73-.87-1.37-2.29,1.37-5.49,2.59-11.03,3.95-16.89ZM120.49,130.48c3.13,4.5,6.09,8.76,9.06,13.02.75,1.07.97.17,1.21-.35,1.71-3.75,3.38-7.52,5.12-11.25.56-1.19.04-1.42-.97-1.42-4.69,0-9.39,0-14.42,0Z"/>
  <path class="cls-2" d="M97.43,50.75c-1.36,5.87-2.59,11.4-3.95,16.89-.36,1.43-.23,2.09,1.37,2.29,4.49.57,8.98,1.21,13.45,1.91,1.04.16,1.43,0,1.6-1.08.86-5.73,1.77-11.44,2.67-17.16.12-.78.26-1.57.42-2.54,1.34,1.02,1.97,2.39,2.79,3.56,9.37,13.34,18.69,26.72,28.05,40.06.74,1.05.85,1.93.37,3.16-2.81,7.34-5.56,14.71-8.23,22.1-.53,1.47-1.32,2.19-2.87,2.44-4.86.8-9.71,1.71-14.55,2.64-1.07.21-1.98.12-2.97-.39-8.34-4.38-16.7-8.7-25.03-13.09-.99-.52-1.69-.54-2.66.06-9.2,5.65-18.44,11.23-27.63,16.89-1.18.73-1.7.62-2.34-.63-4.76-9.17-9.59-18.31-14.38-27.46-1.95-3.72-1.98-3.77.81-6.87,7.37-8.2,14.98-16.19,22.08-24.61,3.4-4.04,7.87-6.03,12.22-8.39,5.85-3.17,11.79-6.19,17.69-9.27.25-.13.51-.23,1.12-.5Z"/>
  <path class="cls-2" d="M120.49,130.48c5.04,0,9.73,0,14.42,0,1.01,0,1.52.23.97,1.42-1.75,3.73-3.41,7.5-5.12,11.25-.24.52-.46,1.43-1.21.35-2.96-4.26-5.93-8.52-9.06-13.02Z"/>
</svg>