<?xml version="1.0" encoding="UTF-8"?><svg id="Layer_2" xmlns="http://www.w3.org/2000/svg" viewBox="0 0 261 83" preserveAspectRatio="xMinYMid meet"><defs><style>.cls-1{fill:#fff;}</style></defs><g id="Layer_1-2"><path class="cls-1" d="m40.14,75.71c-8.43,0-15.27-6.93-15.27-15.47s6.83-15.48,15.27-15.48,15.26,6.93,15.26,15.48-6.83,15.47-15.26,15.47m24.03-18.22c0-13.54-11.52-25.37-26.64-24.43l-.47-6.33c-12.69,1.35-24.6,12.24-24.6,27.55s12.27,27.57,27.46,27.72c13.42-.15,24.25-11.06,24.25-24.51"/><path class="cls-1" d="m70.18,54.81c-1.7,16.78-16.29,29.04-33.04,27.53-18.93-2.11-33-19.09-31.07-38.08,1.94-19.1,18.19-31.18,34.18-31.26l-.22,7.96c18.99.73,31.86,16.96,30.14,33.85M45.76,10.43l1.46-10.1C26.3-2.13,6.39,9.39,1.1,32.11c-5.26,22.58,8.78,44.48,31.27,49.94,19.95,4.42,37.31-6.87,41.96-26.82,4.68-20.08-6.68-39.85-28.56-44.8"/><path class="cls-1" d="m105.71,38.29c.75.7,1.59,1.04,2.53,1.04.85,0,1.61-.11,2.27-.33.66-.22,1.26-.8,1.8-1.74-1.5-.96-2.25-3.3-2.25-7.03v-5.98c0-5.41-.99-9.09-2.98-11.03-1.99-1.94-5.11-2.91-9.38-2.91-3.1,0-5.77.54-8.02,1.62l1.41,5.07c1.65-.82,3.71-1.23,6.16-1.23,4.16,0,6.24,1.65,6.24,4.94-1.04-.26-1.95-.39-2.72-.39-4.48,0-7.93.92-10.36,2.74-2.43,1.83-3.64,4.36-3.64,7.6,0,2.77.86,4.9,2.59,6.41,1.72,1.51,4.09,2.26,7.1,2.26,1.6,0,3.14-.31,4.61-.93,1.47-.62,2.5-1.42,3.1-2.39.26.82.77,1.57,1.51,2.27m-2.14-10.03c0,3.92-1.96,5.88-5.88,5.88-2.91,0-4.36-1.25-4.36-3.76,0-3.38,2.58-5.07,7.73-5.07.56,0,1.39.11,2.51.34v2.61ZM116.9,1.11c-.74.74-1.11,1.63-1.11,2.68s.37,1.94,1.11,2.68c.74.74,1.63,1.11,2.68,1.11s1.94-.37,2.68-1.11c.74-.74,1.11-1.63,1.11-2.68s-.37-1.94-1.11-2.68S120.62,0,119.57,0s-1.94.37-2.68,1.11m5.92,37.7V10.84h-10.19v5.35h3.58v22.62h6.61Zm7.37-37.7c-.74.74-1.11,1.63-1.11,2.68s.37,1.94,1.11,2.68c.74.74,1.63,1.11,2.68,1.11s1.94-.37,2.68-1.11c.74-.74,1.11-1.63,1.11-2.68s-.37-1.94-1.11-2.68c-.74-.74-1.63-1.11-2.68-1.11s-1.94.37-2.68,1.11m5.92,37.7V10.84h-10.19v5.35h3.58v22.62h6.61Zm22.01-.52c.75.7,1.59,1.04,2.53,1.04.85,0,1.61-.11,2.27-.33.66-.22,1.26-.8,1.8-1.74-1.5-.96-2.25-3.3-2.25-7.03v-5.98c0-5.41-.99-9.09-2.98-11.03-1.98-1.94-5.11-2.91-9.38-2.91-3.1,0-5.77.54-8.02,1.62l1.41,5.07c1.65-.82,3.71-1.23,6.16-1.23,4.16,0,6.24,1.65,6.24,4.94-1.04-.26-1.95-.39-2.72-.39-4.48,0-7.93.92-10.36,2.74-2.43,1.83-3.64,4.36-3.64,7.6,0,2.77.86,4.9,2.59,6.41,1.72,1.51,4.09,2.26,7.1,2.26,1.6,0,3.14-.31,4.61-.93,1.47-.62,2.5-1.42,3.1-2.39.26.82.77,1.57,1.51,2.27m-2.14-10.03c0,3.92-1.96,5.88-5.88,5.88-2.91,0-4.36-1.25-4.36-3.76,0-3.38,2.58-5.07,7.73-5.07.56,0,1.39.11,2.51.34v2.61Z"/><path class="cls-1" d="m88.23,63.49c-.25.25-.37.54-.37.89s.12.65.37.89c.25.25.54.37.89.37s.65-.12.89-.37c.25-.25.37-.54.37-.89s-.12-.64-.37-.89c-.25-.25-.54-.37-.89-.37s-.65.12-.89.37m1.97,12.57v-9.32h-3.4v1.78h1.19v7.54h2.2Zm10.26,0v-5.72c0-1.19-.32-2.12-.96-2.78-.64-.66-1.51-1-2.62-1s-2.03.35-2.62,1.04l-.4-.87h-1.57v9.32h2.18v-6.74c.2-.27.49-.49.85-.67.36-.18.7-.27,1.02-.27.69,0,1.19.18,1.49.55s.46.95.46,1.74v5.39h2.18Zm10.08,0v-13.32l-2.18.52v3.73c-.58-.29-1.22-.44-1.93-.44-1.29,0-2.36.46-3.22,1.39-.86.92-1.28,2.12-1.28,3.6s.37,2.62,1.12,3.45c.75.83,1.77,1.24,3.07,1.24.46,0,.9-.07,1.33-.22.43-.15.73-.32.91-.52v.56h2.18Zm-2.18-2.23c-.09.13-.29.25-.6.38-.3.12-.56.19-.77.19-1.87,0-2.8-.97-2.8-2.91,0-.99.23-1.75.7-2.28.47-.53,1.14-.8,2.01-.8.51,0,.99.19,1.45.56v4.87Zm12.09,2.24v-9.33h-2.18v6.41c-.14.34-.42.63-.84.89-.42.25-.88.38-1.38.38-1.08,0-1.61-.6-1.61-1.79v-5.89h-2.18v6.05c0,2.3,1.08,3.45,3.25,3.45.45,0,.95-.09,1.49-.28.54-.19.96-.41,1.27-.67v.78h2.18Zm2.77.01c.37.1.87.15,1.49.15,1.1,0,1.98-.25,2.62-.74.64-.5.96-1.18.96-2.04,0-.65-.18-1.2-.54-1.66s-.95-.85-1.77-1.17c-.82-.32-1.35-.58-1.6-.77-.25-.19-.37-.41-.37-.64,0-.6.38-.91,1.14-.91.85,0,1.51.2,1.99.61l.63-1.69c-.85-.44-1.76-.65-2.73-.65s-1.74.22-2.36.67c-.62.45-.92,1.08-.92,1.89,0,1.2.8,2.14,2.41,2.8.74.31,1.23.57,1.49.8.26.23.38.52.38.87,0,.6-.42.91-1.27.91s-1.55-.26-2.2-.77l-.78,1.73c.59.31,1.07.52,1.44.62m6.7-2.88c0,.97.25,1.72.75,2.24.5.53,1.21.79,2.14.79s1.66-.09,2.16-.26v-2c-.45.28-.94.43-1.46.43s-.89-.14-1.1-.41c-.21-.28-.31-.75-.31-1.42v-4.08h2.56v-1.75h-2.56v-2.7l-2.18.8v1.9h-1.08v1.75h1.08v4.72Zm12.61-6.3c-.39-.23-.96-.34-1.71-.34-1.01,0-1.82.34-2.43,1.03v-.85h-2.18v9.32h2.18v-5.31c0-.66.2-1.22.59-1.68.39-.46.84-.69,1.35-.69.46,0,.89.13,1.28.38l.92-1.86Zm9.07-.17h-2.25l-2.29,6.44-2.54-6.44h-2.25l2.92,7.23c.46,1.15.7,2,.7,2.56,0,.84-.84,1.26-2.52,1.26v1.92c1.02,0,1.9-.2,2.67-.61.76-.41,1.26-.92,1.49-1.54l4.08-10.82Zm11.48,9.15c.25.23.53.35.84.35.28,0,.54-.04.76-.11.22-.07.42-.26.6-.58-.5-.32-.75-1.1-.75-2.34v-1.99c0-1.81-.33-3.03-.99-3.68-.66-.65-1.7-.97-3.13-.97-1.03,0-1.92.18-2.67.54l.47,1.69c.55-.27,1.24-.41,2.05-.41,1.39,0,2.08.55,2.08,1.65-.35-.09-.65-.13-.91-.13-1.49,0-2.64.3-3.45.91-.81.61-1.21,1.45-1.21,2.53,0,.92.29,1.64.86,2.14.57.5,1.36.75,2.37.75.53,0,1.05-.1,1.54-.31.49-.21.84-.47,1.03-.8.09.27.25.53.51.76m-.72-3.34c0,1.31-.65,1.96-1.96,1.96-.97,0-1.45-.42-1.45-1.25,0-1.13.86-1.69,2.58-1.69.18,0,.46.04.84.11v.87Zm4.94,3.54c.37.1.87.15,1.49.15,1.1,0,1.98-.25,2.62-.74s.96-1.18.96-2.04c0-.65-.18-1.2-.54-1.66s-.95-.85-1.77-1.17c-.82-.32-1.35-.58-1.6-.77-.25-.19-.37-.41-.37-.64,0-.6.38-.91,1.14-.91.85,0,1.51.2,1.98.61l.63-1.69c-.85-.44-1.76-.65-2.73-.65s-1.74.22-2.36.67c-.62.45-.92,1.08-.92,1.89,0,1.2.8,2.14,2.41,2.8.74.31,1.23.57,1.49.8.25.23.38.52.38.87,0,.6-.42.91-1.27.91s-1.55-.26-2.2-.77l-.78,1.73c.59.31,1.07.52,1.44.62m7.23,0c.37.1.87.15,1.49.15,1.1,0,1.98-.25,2.62-.74.64-.5.96-1.18.96-2.04,0-.65-.18-1.2-.54-1.66-.36-.46-.95-.85-1.77-1.17-.82-.32-1.35-.58-1.6-.77-.25-.19-.37-.41-.37-.64,0-.6.38-.91,1.14-.91.85,0,1.51.2,1.98.61l.63-1.69c-.85-.44-1.77-.65-2.74-.65s-1.74.22-2.36.67c-.62.45-.92,1.08-.92,1.89,0,1.2.8,2.14,2.41,2.8.74.31,1.23.57,1.49.8.25.23.38.52.38.87,0,.6-.42.91-1.27.91s-1.55-.26-2.2-.77l-.78,1.73c.59.31,1.07.52,1.44.62m6.94-1.18c.79.88,1.89,1.33,3.31,1.33s2.48-.44,3.28-1.31c.8-.88,1.2-2.06,1.2-3.54s-.39-2.67-1.18-3.52c-.78-.86-1.88-1.29-3.3-1.29s-2.43.45-3.25,1.34c-.82.89-1.23,2.05-1.23,3.47s.39,2.65,1.18,3.53m1.69-5.77c.4-.53.94-.8,1.62-.8,1.47,0,2.21,1.01,2.21,3.04,0,.99-.2,1.75-.6,2.28-.4.53-.94.8-1.61.8-1.48,0-2.22-1.03-2.22-3.08,0-.96.2-1.7.6-2.24m11.87-2.58c-1.57,0-2.82.45-3.73,1.36-.91.9-1.37,2.09-1.37,3.56s.42,2.66,1.25,3.5c.83.84,1.97,1.26,3.41,1.26.64,0,1.2-.05,1.68-.16.47-.1,1.03-.35,1.66-.75l-.8-1.72c-.61.53-1.33.8-2.13.8-1.86,0-2.8-.98-2.8-2.93,0-.97.24-1.73.72-2.28.48-.55,1.13-.82,1.96-.82s1.54.24,2.05.72l.93-1.63c-.8-.61-1.74-.91-2.83-.91m5.01-3.07c-.25.25-.37.54-.37.89s.12.65.37.89c.25.25.54.37.89.37s.65-.12.89-.37c.25-.25.37-.54.37-.89s-.12-.64-.37-.89c-.25-.25-.54-.37-.89-.37s-.65.12-.89.37m1.97,12.57v-9.32h-3.39v1.78h1.19v7.54h2.2Zm7.78-.17c.25.23.53.35.84.35.28,0,.54-.04.76-.11.22-.07.42-.26.6-.58-.5-.32-.75-1.1-.75-2.34v-1.99c0-1.81-.33-3.03-.99-3.68-.66-.65-1.7-.97-3.13-.97-1.03,0-1.92.18-2.67.54l.47,1.69c.55-.27,1.24-.41,2.05-.41,1.39,0,2.08.55,2.08,1.65-.35-.09-.65-.13-.91-.13-1.49,0-2.64.3-3.45.91-.81.61-1.21,1.45-1.21,2.53,0,.92.29,1.64.86,2.14.57.5,1.36.75,2.37.75.53,0,1.05-.1,1.54-.31.49-.21.83-.47,1.03-.8.09.27.25.53.5.76m-.71-3.34c0,1.31-.65,1.96-1.96,1.96-.97,0-1.46-.42-1.46-1.25,0-1.13.86-1.69,2.58-1.69.18,0,.46.04.84.11v.87Zm4.4.66c0,.97.25,1.72.75,2.24.5.53,1.21.79,2.14.79s1.65-.09,2.16-.26v-2c-.45.28-.94.43-1.46.43s-.89-.14-1.1-.41c-.21-.28-.31-.75-.31-1.42v-4.08h2.56v-1.75h-2.56v-2.7l-2.18.8v1.9h-1.08v1.75h1.08v4.72Zm7.11-9.71c-.25.25-.37.54-.37.89s.12.65.37.89c.25.25.54.37.89.37s.65-.12.89-.37c.25-.25.37-.54.37-.89s-.12-.64-.37-.89c-.25-.25-.54-.37-.89-.37s-.65.12-.89.37m1.97,12.57v-9.32h-3.4v1.78h1.19v7.54h2.2Zm2.66-1.15c.79.88,1.89,1.33,3.3,1.33s2.48-.44,3.28-1.31c.8-.88,1.2-2.06,1.2-3.54s-.39-2.67-1.18-3.52c-.78-.86-1.88-1.29-3.3-1.29s-2.43.45-3.25,1.34c-.82.89-1.23,2.05-1.23,3.47s.39,2.65,1.18,3.53m1.68-5.77c.4-.53.94-.8,1.62-.8,1.47,0,2.21,1.01,2.21,3.04,0,.99-.2,1.75-.6,2.28-.4.53-.94.8-1.62.8-1.48,0-2.22-1.03-2.22-3.08,0-.96.2-1.7.6-2.24m15.57,6.92v-5.72c0-1.19-.32-2.12-.96-2.78-.64-.66-1.52-1-2.62-1s-2.03.35-2.62,1.04l-.4-.87h-1.57v9.32h2.18v-6.74c.2-.27.49-.49.85-.67.36-.18.7-.27,1.02-.27.69,0,1.19.18,1.49.55.3.37.46.95.46,1.74v5.39h2.18Z"/><path class="cls-1" d="m93.11,60.01c.25.23.53.35.84.35.28,0,.54-.04.76-.11.22-.07.42-.26.6-.58-.5-.32-.75-1.1-.75-2.34v-1.99c0-1.8-.33-3.03-.99-3.68-.66-.65-1.7-.97-3.13-.97-1.03,0-1.92.18-2.67.54l.47,1.69c.55-.27,1.24-.41,2.06-.41,1.39,0,2.08.55,2.08,1.65-.35-.09-.65-.13-.91-.13-1.49,0-2.64.3-3.45.92-.81.61-1.21,1.45-1.21,2.53,0,.92.29,1.64.86,2.14.57.5,1.36.75,2.37.75.53,0,1.05-.1,1.54-.31.49-.21.83-.47,1.03-.8.09.27.26.53.51.76m-.71-3.34c0,1.31-.65,1.96-1.96,1.96-.97,0-1.45-.42-1.45-1.25,0-1.13.86-1.69,2.58-1.69.19,0,.46.04.84.11v.87Zm12.26,3.52v-9.33h-2.18v6.41c-.14.34-.42.63-.84.89-.42.25-.88.38-1.38.38-1.07,0-1.61-.6-1.61-1.79v-5.89h-2.18v6.05c0,2.3,1.08,3.45,3.25,3.45.45,0,.95-.09,1.49-.28.54-.18.96-.41,1.27-.67v.78h2.18Zm2.77.01c.37.1.87.15,1.49.15,1.1,0,1.98-.25,2.62-.74s.96-1.18.96-2.04c0-.65-.18-1.2-.54-1.66-.36-.46-.95-.85-1.77-1.17-.82-.32-1.35-.58-1.6-.77-.25-.19-.37-.41-.37-.64,0-.6.38-.91,1.14-.91.85,0,1.51.2,1.99.61l.63-1.69c-.85-.44-1.77-.65-2.73-.65s-1.74.23-2.36.68c-.61.45-.92,1.08-.92,1.89,0,1.2.8,2.14,2.41,2.8.74.31,1.23.57,1.49.8.25.23.38.52.38.87,0,.6-.42.91-1.27.91s-1.55-.26-2.2-.77l-.77,1.73c.59.31,1.07.52,1.44.62m6.7-2.88c0,.97.25,1.72.75,2.24.5.52,1.21.79,2.14.79s1.66-.09,2.16-.26v-2c-.45.28-.94.43-1.46.43s-.89-.14-1.1-.41c-.21-.27-.31-.75-.31-1.41v-4.08h2.56v-1.75h-2.56v-2.7l-2.18.8v1.9h-1.08v1.75h1.08v4.72Zm12.61-6.3c-.39-.23-.96-.34-1.71-.34-1.01,0-1.82.34-2.43,1.03v-.85h-2.18v9.32h2.18v-5.31c0-.66.2-1.22.59-1.68.39-.46.84-.69,1.35-.69.46,0,.89.13,1.28.38l.92-1.86Zm6,8.98c.25.23.53.35.84.35.29,0,.54-.04.76-.11s.42-.26.6-.58c-.5-.32-.75-1.1-.75-2.34v-1.99c0-1.8-.33-3.03-.99-3.68-.66-.65-1.7-.97-3.13-.97-1.03,0-1.92.18-2.67.54l.47,1.69c.55-.27,1.23-.41,2.05-.41,1.39,0,2.08.55,2.08,1.65-.35-.09-.65-.13-.91-.13-1.49,0-2.64.3-3.45.92-.81.61-1.21,1.45-1.21,2.53,0,.92.29,1.64.86,2.14.58.5,1.36.75,2.37.75.53,0,1.05-.1,1.54-.31.49-.21.83-.47,1.03-.8.09.27.25.53.51.76m-.71-3.34c0,1.31-.65,1.96-1.96,1.96-.97,0-1.45-.42-1.45-1.25,0-1.13.86-1.69,2.58-1.69.19,0,.46.04.84.11v.87Zm4.45,1.64c0,1.37.49,2.05,1.48,2.05.81,0,1.39-.32,1.72-.96-.69-.22-1.03-.91-1.03-2.05v-10.48l-2.18.52v10.92Zm5.25-10.69c-.25.25-.37.54-.37.89s.12.65.37.89c.25.25.54.37.89.37s.65-.12.89-.37c.25-.25.37-.54.37-.89s-.12-.64-.37-.89c-.25-.25-.54-.37-.89-.37s-.65.12-.89.37m1.97,12.57v-9.32h-3.4v1.78h1.19v7.54h2.2Zm7.78-.17c.25.23.53.35.84.35.28,0,.54-.04.76-.11.22-.07.42-.26.6-.58-.5-.32-.75-1.1-.75-2.34v-1.99c0-1.8-.33-3.03-.99-3.68-.66-.65-1.7-.97-3.13-.97-1.03,0-1.92.18-2.67.54l.47,1.69c.55-.27,1.23-.41,2.05-.41,1.39,0,2.08.55,2.08,1.65-.35-.09-.65-.13-.9-.13-1.49,0-2.64.3-3.45.92-.81.61-1.22,1.45-1.22,2.53,0,.92.29,1.64.86,2.14.57.5,1.36.75,2.37.75.53,0,1.05-.1,1.54-.31.49-.21.83-.47,1.03-.8.09.27.25.53.5.76m-.71-3.34c0,1.31-.65,1.96-1.96,1.96-.97,0-1.45-.42-1.45-1.25,0-1.13.86-1.69,2.58-1.69.19,0,.47.04.84.11v.87Zm12.25,3.52v-5.72c0-1.19-.32-2.12-.96-2.78-.64-.66-1.52-1-2.62-1s-2.03.35-2.62,1.05l-.4-.87h-1.57v9.32h2.18v-6.74c.2-.27.49-.49.85-.67.36-.18.7-.27,1.02-.27.69,0,1.19.18,1.49.55.3.37.46.95.46,1.74v5.39h2.18Zm7.64-12.57c-.25.25-.37.54-.37.89s.12.65.37.89c.25.25.55.37.89.37s.65-.12.89-.37c.25-.25.37-.54.37-.89s-.12-.64-.37-.89c-.25-.25-.54-.37-.89-.37s-.65.12-.89.37m1.97,12.57v-9.32h-3.39v1.78h1.19v7.54h2.2Zm10.27,0v-5.72c0-1.19-.32-2.12-.96-2.78-.64-.66-1.52-1-2.62-1s-2.03.35-2.62,1.05l-.4-.87h-1.57v9.32h2.18v-6.74c.2-.27.49-.49.85-.67.36-.18.7-.27,1.02-.27.69,0,1.19.18,1.49.55.3.37.46.95.46,1.74v5.39h2.18Zm7.75-12.81c-.74-.23-1.37-.34-1.89-.34-1,0-1.81.35-2.44,1.05-.63.7-.97,1.63-1.01,2.77h-1.37v1.79h1.36v7.53h2.18v-7.53h1.9v-1.79h-1.93c0-.07,0-.15,0-.23,0-.52.14-.95.43-1.31.29-.35.64-.53,1.05-.53.26,0,.62.08,1.1.23l.64-1.65Zm.87,11.65c.79.88,1.89,1.33,3.3,1.33s2.48-.44,3.28-1.31c.8-.88,1.2-2.06,1.2-3.54s-.39-2.67-1.18-3.52c-.78-.86-1.88-1.29-3.3-1.29s-2.43.45-3.25,1.34-1.23,2.05-1.23,3.47.39,2.64,1.18,3.53m1.69-5.77c.4-.53.94-.8,1.62-.8,1.47,0,2.21,1.01,2.21,3.04,0,.99-.2,1.75-.6,2.28-.4.53-.94.8-1.62.8-1.48,0-2.22-1.03-2.22-3.08,0-.96.2-1.7.6-2.24m13.7-2.24c-.4-.23-.96-.34-1.71-.34-1.01,0-1.82.34-2.43,1.03v-.85h-2.18v9.32h2.18v-5.31c0-.66.2-1.22.59-1.68.39-.46.84-.69,1.35-.69.46,0,.89.13,1.28.38l.92-1.86Zm13.83,9.16v-6.15c0-1.04-.29-1.86-.87-2.45-.58-.6-1.39-.89-2.42-.89-.49,0-.98.09-1.46.28-.49.18-.87.43-1.14.74-.63-.67-1.56-1.01-2.8-1.01-.96,0-1.74.33-2.34.99l-.44-.82h-1.5v9.32h2.18v-6.7c.15-.24.38-.47.7-.67.32-.2.62-.3.89-.3.52,0,.92.14,1.2.41.28.27.43.63.43,1.09v6.18h2.18v-6.73c.12-.25.33-.47.64-.66.3-.19.62-.29.94-.29,1.1,0,1.65.61,1.65,1.84v5.84h2.18Zm7.6-.17c.25.23.53.35.84.35.29,0,.54-.04.76-.11s.42-.26.6-.58c-.5-.32-.75-1.1-.75-2.34v-1.99c0-1.8-.33-3.03-.99-3.68-.66-.65-1.7-.97-3.12-.97-1.03,0-1.92.18-2.67.54l.47,1.69c.55-.27,1.23-.41,2.05-.41,1.39,0,2.08.55,2.08,1.65-.35-.09-.65-.13-.91-.13-1.49,0-2.64.3-3.45.92-.81.61-1.21,1.45-1.21,2.53,0,.92.29,1.64.86,2.14.58.5,1.36.75,2.37.75.53,0,1.04-.1,1.54-.31.49-.21.84-.47,1.03-.8.09.27.25.53.51.76m-.71-3.34c0,1.31-.65,1.96-1.96,1.96-.97,0-1.45-.42-1.45-1.25,0-1.13.86-1.69,2.58-1.69.19,0,.46.04.84.11v.87Zm4.4.66c0,.97.25,1.72.75,2.24s1.21.79,2.14.79,1.66-.09,2.16-.26v-2c-.45.28-.94.43-1.46.43s-.89-.14-1.1-.41c-.21-.27-.31-.75-.31-1.41v-4.08h2.56v-1.75h-2.56v-2.7l-2.18.8v1.9h-1.08v1.75h1.08v4.72Zm7.11-9.71c-.25.25-.37.54-.37.89s.12.65.37.89c.25.25.54.37.89.37s.65-.12.89-.37c.25-.25.37-.54.37-.89s-.12-.64-.37-.89c-.25-.25-.54-.37-.89-.37s-.65.12-.89.37m1.97,12.57v-9.32h-3.4v1.78h1.19v7.54h2.2Zm2.66-1.15c.79.88,1.89,1.33,3.31,1.33s2.48-.44,3.28-1.31c.8-.88,1.2-2.06,1.2-3.54s-.39-2.67-1.18-3.52c-.78-.86-1.88-1.29-3.3-1.29s-2.43.45-3.25,1.34-1.23,2.05-1.23,3.47.39,2.64,1.18,3.53m1.69-5.77c.4-.53.94-.8,1.62-.8,1.47,0,2.21,1.01,2.21,3.04,0,.99-.2,1.75-.6,2.28-.4.53-.94.8-1.61.8-1.48,0-2.22-1.03-2.22-3.08,0-.96.2-1.7.6-2.24m15.57,6.92v-5.72c0-1.19-.32-2.12-.96-2.78-.64-.66-1.52-1-2.63-1s-2.03.35-2.62,1.05l-.4-.87h-1.57v9.32h2.18v-6.74c.2-.27.49-.49.85-.67.36-.18.7-.27,1.02-.27.69,0,1.19.18,1.49.55.3.37.46.95.46,1.74v5.39h2.18Z"/></g></svg>