<?xml version="1.0" encoding="UTF-8"?>
<svg id="Layer_2" data-name="Layer 2" xmlns="http://www.w3.org/2000/svg" viewBox="0 0 300 128">
  <defs>
    <style>
      .cls-1 {
        fill: #fff;
      }
    </style>
  </defs>
  <g id="Layer_2-2" data-name="Layer 2">
    <g>
      <path class="cls-1" d="M121.23,29.06c3.83.04,6.91-2.87,6.85-6.48-.05-3.61-3.01-6.44-6.71-6.43-3.94.01-6.78,2.73-6.79,6.5,0,3.65,2.82,6.37,6.64,6.4M111.5,31.43c-4.05-5.27-4.63-11.05-1.54-15.59,3.61-5.31,9.51-6.85,17.73-4.53,1.68-4.1,5.08-4.96,9.26-4.58v5.72c-.8.06-1.57.05-2.31.18-2.23.39-2.83,1.69-1.7,3.65,4.8,8.28-.92,18.54-10.49,18.73-1.67.03-3.36-.35-5.03-.33-.83,0-2.22.31-2.37.8-.29.9-.19,2.29.36,3,.53.68,1.82,1,2.8,1.05,3.03.15,6.07-.01,9.1.13,5.05.23,9.03,4.31,8.87,8.93-.07,1.95-1.11,3.14-2.85,3.29-1.78.15-3.06-.83-3.48-2.66-.66-2.94-1.31-3.45-4.3-3.45-2.89,0-5.78,0-8.68-.03-3.51-.04-6.75-.89-8.14-4.46-1.42-3.64-.44-6.9,2.58-9.48.1-.08.13-.24.19-.37"/>
      <path class="cls-1" d="M193.57,16.32c-5.03-.07-8.87,3.6-9.02,8.6-.15,4.87,3.77,8.9,8.71,8.97,4.92.07,8.88-3.82,8.92-8.76.03-4.85-3.77-8.75-8.6-8.81M178.3,10.92h6.11c.05,1.12.1,2.15.17,3.66,3.27-3.36,7.04-4.93,11.45-4.43,4.36.5,7.86,2.54,10.24,6.29,4.12,6.49,2.93,15.54-2.7,20.41-4.01,3.47-12.08,5.53-19.07-1.27v15.4h-6.21V10.92Z"/>
      <path class="cls-1" d="M22.86,34.24c1.46-2.08,2.58-3.68,3.76-5.38,3.49,3,7.23,4.94,11.74,5.04,2.44.05,4.78-.28,6.76-1.89,2.19-1.78,2.39-4.56.03-6.04-2.08-1.31-4.61-1.9-6.93-2.84-3.24-1.31-6.74-2.23-9.63-4.09-5.74-3.69-5.63-11.91-.13-15.97,6.36-4.69,17.14-3.94,23.53,1.82-1.04,1.65-2.1,3.35-3.17,5.05-4.04-3.18-8.44-4.67-13.46-3.28-2.53.7-3.9,2.27-3.9,4.15,0,2.36,1.61,3.56,3.52,4.24,2.44.87,5.03,1.31,7.45,2.22,2.41.91,4.9,1.87,6.99,3.34,5.71,4.03,5.81,11.8.23,16.01-6.29,4.75-13.18,4.2-20.05,1.49-2.31-.91-4.35-2.48-6.75-3.88"/>
      <path class="cls-1" d="M54.88,119.13c-5.3,7.64-14.65,10.62-23.73,7.71-8.4-2.7-13.66-10.16-13.56-19.27.09-8.9,5.59-16.33,13.91-18.82,8.85-2.64,18.5.55,23.37,7.89-1.87,1.16-3.75,2.32-5.58,3.46-7.46-6.94-15.38-7.51-21.11-1.63-5.11,5.24-4.87,13.9.39,19.23,4.3,4.36,14.09,5.93,20.69-2.03,1.8,1.11,3.64,2.24,5.63,3.47"/>
      <path class="cls-1" d="M156.31,16.33c-5.09-.07-9.07,3.79-9.07,8.79,0,4.81,3.86,8.69,8.72,8.76,4.94.08,8.94-3.84,8.95-8.74,0-4.9-3.75-8.75-8.6-8.81M164.81,14.57c.08-1.51.12-2.47.18-3.59h6.15v28.3h-6.11c-.07-1.08-.13-2.15-.2-3.3-8.6,5.57-14.99,5.36-20.4-.58-4.77-5.23-4.89-14.8-.18-20.45,2.62-3.14,6.09-4.71,10.15-4.87,3.96-.15,7.4,1.2,10.41,4.48"/>
      <path class="cls-1" d="M52.3,69.2c.06-4.82-3.81-8.81-8.59-8.87-5.03-.05-8.87,3.63-9.03,8.66-.15,4.84,3.75,8.87,8.72,9.03,4.76.15,8.84-3.9,8.9-8.83M52.22,58.41c.06-1.3.11-2.33.16-3.46h6.12v28.49h-6.09c-.07-1.15-.13-2.22-.22-3.78-3.48,3.9-7.66,4.9-12.26,4.3-3.5-.46-6.3-2.3-8.55-5-4.64-5.56-4.16-15.51,1.03-20.78,5.22-5.3,12.91-5.29,19.81.22"/>
      <path class="cls-1" d="M292.89,22.26c-.53-3.67-3.8-6.3-7.81-6.35-4.04-.05-7.35,2.54-8.04,6.35h15.85ZM299.72,27.74h-22.75c.61,2.87,2.28,4.68,4.69,5.66,4.83,1.96,9.08.7,12.9-2.93,1.38,1.17,2.7,2.29,4.21,3.56-2.05,2.76-4.78,4.31-7.91,5.29-8.61,2.68-17.56-1.5-20.2-9.43-2.02-6.07-.15-12.61,4.73-16.59,4.65-3.79,12.3-4.3,17.5-1.16,5.32,3.21,8.01,9.2,6.82,15.61"/>
      <path class="cls-1" d="M184.5,83.43h-6.23v-28.45h6.13c.06.95.12,1.85.19,3.03.57-.43.99-.73,1.38-1.05,4.93-4.07,12.83-3.68,16.9.84,1.94,2.16,2.65,4.8,2.66,7.59.06,9.09.04,18.17.01,27.26,0,2.42-1.28,3.85-3.26,3.85-2.02,0-3.08-1.34-3.08-3.91,0-8.1.02-16.2-.02-24.3-.02-4.03-1.59-6.56-4.54-7.54-5.39-1.8-10.03,1.58-10.13,7.48-.08,5-.02,9.99-.02,15.2"/>
      <path class="cls-1" d="M115.81,83.36c0-5.29.07-10.42-.02-15.56-.09-5.67-4.44-8.76-9.77-7.06-2.88.92-4.51,3.13-4.54,6.36-.04,4.57-.01,9.15-.01,13.73v2.24c-2.15.13-4.16.26-6.25.39v-40.29h6.12v15.07c2.8-2.96,5.82-4.05,9.35-4.05,6.6.02,11.07,3.83,11.41,10.41.28,5.48.06,10.98.07,16.47,0,.7,0,1.4,0,2.28h-6.36Z"/>
      <path class="cls-1" d="M82.9,113c.03-5.25-3.6-8.91-8.83-8.91-4.66,0-8.52,3.88-8.59,8.62-.07,5.13,3.68,8.96,8.82,8.98,4.93.02,8.56-3.65,8.59-8.69M89.61,113.04c-.02,8.56-6.63,14.91-15.51,14.9-8.56,0-15.1-6.47-15.2-15.03-.1-8.54,6.63-14.96,15.64-14.94,8.64.02,15.09,6.47,15.07,15.06"/>
      <path class="cls-1" d="M229.27,16.33c-5.01-.01-8.85,3.79-8.84,8.74,0,4.89,3.77,8.75,8.6,8.84,5.06.09,8.9-3.76,8.87-8.92-.02-5.04-3.62-8.65-8.63-8.66M229.13,40.04c-8.7,0-15.13-6.29-15.26-14.9-.12-8.53,6.64-15.07,15.57-15.06,8.61.02,15.12,6.51,15.11,15.06,0,8.62-6.52,14.91-15.43,14.9"/>
      <path class="cls-1" d="M166.07,69.02c-.04-5-3.88-8.74-8.92-8.68-4.78.06-8.62,3.98-8.64,8.84-.02,4.83,3.97,8.81,8.9,8.87,4.81.05,8.69-3.99,8.66-9.02M157.27,84.07c-8.82.01-15.2-6.24-15.21-14.9,0-8.52,6.45-14.98,14.96-14.95,9.24.03,15.62,6.11,15.63,14.92.01,8.73-6.36,14.92-15.37,14.93"/>
      <polygon class="cls-1" points="6.7 51.03 6.7 61.13 22.4 61.13 22.4 67.53 6.72 67.53 6.72 83.38 0 83.38 0 44.89 24.72 44.89 24.72 51.03 6.7 51.03"/>
      <path class="cls-1" d="M80.52,39.33h-6.2V10.94h6.05c.09.91.17,1.85.29,3.05,3.52-3.27,7.43-4.53,11.95-3.64,5.04.99,8.48,4.31,8.74,9.41.32,6.45.08,12.92.08,19.52h-6.3c0-5.25.04-10.38,0-15.51-.05-5.82-4.73-9.04-10.12-6.97-2.5.96-4.15,2.79-4.25,5.5-.19,4.85-.16,9.71-.21,14.56,0,.76,0,1.51,0,2.46"/>
      <path class="cls-1" d="M136.04,98.77c.07.98.12,1.81.2,3.02,2.98-2.9,6.38-4,10.28-3.83,5.48.23,10.03,4.07,10.3,9.55.32,6.45.07,12.93.07,19.55h-6.31c0-5.18.02-10.31,0-15.43-.02-5.28-3.47-8.19-8.68-7.35-3.37.54-5.71,3.12-5.74,6.51-.05,5.34-.01,10.69-.01,16.23h-6.42v-28.24h6.32Z"/>
      <path class="cls-1" d="M95.48,98.72h6.36c0,5.4-.02,10.66,0,15.93.03,5.33,4.24,8.32,9.34,6.67,2.69-.87,4.26-3.01,4.28-6.07.04-5.42.01-10.84.01-16.46h6.36c0,1.01,0,2.04,0,3.07,0,4.44-.17,8.88.04,13.31.33,7.23-4.44,11.98-11.54,12.74-7.07.75-12.94-2.77-14.53-8.79-.09-.34-.21-.68-.23-1.02-.06-.91-.1-1.83-.1-2.74,0-5.48,0-10.96,0-16.62"/>
      <path class="cls-1" d="M186.81,108.42c-4.3-4.97-10.07-5.7-13.92-1.9-3.62,3.57-3.49,9.62.28,13,4.01,3.6,9.71,2.79,13.59-2.1,1.74,1.05,3.51,2.11,5.27,3.17-2.5,5.44-9.66,8.37-16.74,6.95-6.57-1.32-11.48-7.26-11.59-14.03-.12-7.38,4.35-13.46,11.08-15.08,7.07-1.7,14.44,1.13,17.27,6.76-1.71,1.05-3.44,2.11-5.25,3.23"/>
      <path class="cls-1" d="M87.93,57.99c-1.2,1.59-2.26,2.98-3.4,4.5-2.75-2.12-5.73-3.17-9.11-2.57-1.46.26-3.07.54-3.24,2.42-.17,1.89,1.36,2.52,2.76,2.97,2.81.89,5.73,1.45,8.5,2.44,3.1,1.11,5.01,3.35,5.11,6.8.1,3.28-1.22,5.87-4.04,7.63-3.57,2.22-7.51,2.23-11.45,1.66-3.18-.46-6.03-1.81-8.4-4.17,1.08-1.45,2.11-2.84,3.26-4.38,2.77,2.33,5.76,3.54,9.24,3.27.21-.02.42,0,.63-.02,2.42-.21,4.19-1.33,4.18-2.82-.01-2.18-1.79-2.64-3.4-3.14-2.74-.85-5.6-1.43-8.24-2.53-4.11-1.7-5.73-5.53-4.38-9.7.81-2.51,2.58-4.23,5.03-5.07,6-2.04,11.61-1.29,16.95,2.72"/>
      <rect class="cls-1" x="211.72" y="87.07" width="6.28" height="40.02"/>
      <path class="cls-1" d="M256.79,39.3h-6.38V10.93h6.27c.07,1.05.13,2.01.21,3.33,2.75-2.59,5.66-4.38,9.57-3.72v6.14c-1.17.18-2.34.29-3.48.54-3.76.79-6.13,3.62-6.17,7.45-.05,4.78-.01,9.57-.01,14.64"/>
      <rect class="cls-1" x="60.43" y="10.97" width="6.19" height="28.32"/>
      <path class="cls-1" d="M136.06,83.44h-6.08v-28.83c1.99,1.38,4.01,1.68,6.08-.18v29.01Z"/>
      <path class="cls-1" d="M205.38,127.14h-6.01v-28.02c1.95,1.5,3.92,1.76,6.01-.29v28.31Z"/>
      <path class="cls-1" d="M63.3,6.7c-1.96-.1-3.06-1.36-2.92-3.34.13-1.79,1.42-2.91,3.27-2.84,1.89.07,3.2,1.47,3.09,3.29-.11,1.85-1.47,2.98-3.44,2.89"/>
    </g>
  </g>
</svg>