<?xml version="1.0" encoding="UTF-8"?><svg id="Layer_2" xmlns="http://www.w3.org/2000/svg" viewBox="0 0 300 124.09"><defs><style>.cls-1{fill:#262f72;stroke-width:0px;}</style></defs><g id="Layer_1-2"><path class="cls-1" d="m300,74.84c-1.1,0-2.19.04-3.29,0-.46-.01-.63.15-.74.58-1.73,6.59-3.47,13.17-5.22,19.75-2.47,9.35-4.95,18.69-7.41,28.04-.13.5-.34.64-.86.64-3.17-.03-6.35-.02-9.52,0-.45,0-.63-.13-.74-.56-2.23-8.82-4.48-17.63-6.72-26.44-1.8-7.08-3.62-14.16-5.4-21.25-.16-.62-.41-.79-1.01-.76-.99.05-1.99.01-3.07.01v12.39h-8.42v-12.34h-4.74v39.6h4.47v8.38h-22.5v-8.36h4.52v-39.63h-4.72v12.34h-8.38v-20.76h60.18v8.36h-4.07c2.11,9.07,4.2,18.03,6.29,27,.06,0,.13,0,.19,0,2.11-8.96,4.23-17.92,6.36-26.97h-4.72v-8.44h.66c6.06,0,12.12,0,18.18,0,.23,0,.46-.01.69-.02v8.42Z"/><path class="cls-1" d="m159.78,124.09c-.58-.1-1.17-.18-1.75-.3-4.67-.9-7.71-3.74-9.54-8.02-1.19-2.78-1.72-5.72-1.98-8.72-.24-2.8-.27-5.6,0-8.4.39-3.94,1.28-7.74,3.7-10.99,2.42-3.26,5.76-4.85,9.75-5.21,2.89-.26,5.63.19,8.18,1.61,3.32,1.85,5.31,4.76,6.5,8.28.88,2.61,1.23,5.3,1.27,8.04.02,1.51,0,3.03,0,4.61h-17.89c0,1.18-.07,2.29.02,3.39.13,1.58.31,3.17.59,4.73.11.61.44,1.25.85,1.72,1.17,1.35,3.95,1.03,4.92-.61.54-.92.78-2.02,1.15-3.05.05-.14.07-.29.13-.53,3.23,1.2,6.42,2.39,9.65,3.59-.04.16-.07.31-.12.44-2.3,5.4-6.29,8.58-12.18,9.28-.13.01-.25.07-.37.11h-2.89Zm4.39-24.97c0-1.3.09-2.57-.03-3.83-.1-1.1-.34-2.2-.68-3.25-.34-1.06-1.19-1.64-2.34-1.63-1.16,0-1.93.63-2.29,1.69-.28.83-.51,1.7-.61,2.56-.16,1.46-.19,2.94-.28,4.46h6.22Z"/><path class="cls-1" d="m53.84,124.09c-.58-.1-1.16-.19-1.74-.31-4.72-.92-7.74-3.83-9.55-8.16-1.05-2.52-1.57-5.17-1.85-7.87-.28-2.8-.34-5.6-.11-8.4.32-3.92,1.1-7.72,3.32-11.07,2.2-3.32,5.34-5.16,9.26-5.72,3.07-.44,6.02-.11,8.79,1.33,3.41,1.77,5.48,4.66,6.74,8.21.95,2.69,1.29,5.48,1.37,8.32.04,1.31-.02,2.61.02,3.92.01.53-.14.68-.67.68-5.5-.02-11-.01-16.5-.01-.24,0-.49,0-.73,0,0,1.18-.07,2.29.02,3.39.13,1.62.3,3.25.6,4.84.24,1.29.98,2.25,2.44,2.38,1.47.13,2.77-.23,3.46-1.63.5-1.02.81-2.14,1.23-3.28,3.1,1.15,6.3,2.34,9.52,3.54-.03.15-.04.28-.09.39-2.29,5.43-6.28,8.63-12.2,9.33-.15.02-.29.08-.44.11h-2.89Zm1.39-24.93c.86,0,1.73-.01,2.59,0,.39,0,.55-.11.53-.52-.06-1.32,0-2.65-.15-3.97-.11-.98-.36-1.97-.74-2.87-.48-1.14-1.59-1.58-2.77-1.33-1.22.26-1.69,1.2-1.98,2.24-.56,1.98-.57,4.01-.61,6.05,0,.37.2.39.48.39.88,0,1.77,0,2.65,0Z"/><path class="cls-1" d="m291.96,60.47c-.23,1.01-.49,1.21-1.54,1.21-1.73,0-3.46,0-5.19,0-1.05,0-1.31-.21-1.55-1.24h-49.42c-.03.13-.06.28-.1.42-.17.54-.52.83-1.1.83-1.96,0-3.92,0-5.89,0-.71,0-.99-.29-1.22-1.27-1.15,0-2.32-.06-3.49.02-1.41.09-2.52-.93-2.52-2.55.02-16.22.02-32.45,0-48.67,0-1.48.94-2.67,2.55-2.57,1.19.08,2.38,0,3.58.02.34,0,.54-.05.69-.43.1-.25.43-.44.7-.58.42-.23.84-.26,1.34-.05.27.11.69-.19,1.05-.21.73-.04,1.49-.13,2.18.02.57.12,1.36.13,1.54,1,.02.11.37.22.56.22,2.38.02,4.77,0,7.16,0,1.25,0,2.5-.02,3.75,0,.44,0,.56-.14.55-.56-.02-1.38-.01-2.77,0-4.15,0-1.28.68-1.94,1.96-1.94,7.62,0,15.23,0,22.85,0,1.31,0,1.93.63,1.93,1.95,0,1.38.01,2.77,0,4.15,0,.43.14.56.56.56,3.65-.01,7.31,0,10.96,0,.31,0,.51-.04.63-.41.07-.24.38-.45.63-.59.78-.44,1.64-.34,2.48-.31.33.01.65.18.99.23.24.04.6.12.73,0,.43-.44.76-.07,1.14.03.47.12.71.37.85.83.03.11.33.21.51.21,1.29.02,2.58,0,3.87.01,1.4,0,2.28.87,2.28,2.26,0,16.4,0,32.8,0,49.19,0,1.45-.88,2.31-2.35,2.31-1.17,0-2.35,0-3.52.01-.04,0-.07.03-.11.04Zm-12.23-27.04c0-11.44-9.23-20.72-20.52-20.83-11.06-.11-21.02,8.65-21.03,20.78-.01,11.8,9.48,20.74,20.61,20.78,11.63.05,20.94-9.2,20.94-20.74Zm-9.49-26.81c0-1,0-1.96,0-2.92,0-1.09-.7-1.8-1.8-1.81-6.33,0-12.65,0-18.98,0-1.07,0-1.76.71-1.78,1.78-.01.75.03,1.5-.02,2.25-.04.58.14.74.73.74,7.06-.02,14.12-.01,21.17-.02.21,0,.41-.02.68-.03Z"/><path class="cls-1" d="m17.7,31.11v16.97h2.16v8.38H0v-8.36h4.18V8.49H0V.04h19.86v8.4h-2.14v14.15h8.42v-14.11h-2.16V.04h19.96c.01.18.03.36.03.55,0,2.42-.01,4.84.01,7.27,0,.53-.17.64-.66.63-1.21-.03-2.42-.01-3.67-.01v39.61h4.26v8.4h-19.93v-8.36h2.14v-17.01h-8.44Z"/><path class="cls-1" d="m180.46,56.48v-.74c0-8.63,0-17.26,0-25.89,0-.74-.09-1.5-.22-2.23-.4-2.13-1.74-3.03-3.97-2.51-1.03.24-1.96.91-2.91,1.44-.15.08-.21.43-.21.65-.01,3.31,0,6.61,0,9.92v10.95h3.41v8.41h-19.46v-8.35h4.29V8.48h-4.29V.04h16.04v19.47c.39-.29.66-.5.93-.7,1.59-1.17,3.23-2.25,5.21-2.6,3.36-.6,6.53-.2,9.18,2.19,1.84,1.66,2.83,3.82,3.28,6.21.28,1.48.46,3.01.47,4.51.05,6.05.02,12.11.02,18.17,0,.25,0,.49,0,.79h3.89v8.4h-15.64Z"/><path class="cls-1" d="m125.11,66.47h15.49v48.05h3.81v8.38h-15.52v-2.9s-.09-.04-.13-.07c-.24.25-.49.51-.73.76-3.82,4.07-10.85,3.89-14.31-1.34-1.56-2.37-2.44-4.99-2.95-7.75-.95-5.06-1.09-10.15-.45-15.25.41-3.24,1.24-6.37,3.1-9.13,2.9-4.3,7.57-5.13,11.33-3.73,1.57.59,2.68,1.75,3.63,3.09.11.16.24.32.46.61v-12.31h-3.72v-8.41Zm3.64,37.63c.06,0,.12,0,.17,0-.06-2.34-.06-4.69-.21-7.03-.07-1.09-.37-2.19-.7-3.24-.24-.78-.86-1.3-1.7-1.48-1.52-.32-2.66.28-3.27,1.76-.6,1.46-.76,3.02-.78,4.57-.05,3.32-.08,6.65.02,9.96.05,1.5.33,3.01.7,4.47.34,1.36,1.26,1.96,2.51,1.98,1.26.02,2.23-.6,2.69-1.87.27-.75.51-1.55.53-2.34.07-2.26.02-4.53.02-6.8Z"/><path class="cls-1" d="m24.7,74.87h-6.15c-.01.25-.04.46-.04.66,0,12.78,0,25.57-.01,38.35,0,.55.18.66.69.66,2.73-.02,5.46-.02,8.19,0,.55,0,.71-.14.71-.7-.02-5.07-.01-10.15-.01-15.22,0-.25,0-.49,0-.79h9.97v25.06H.14v-8.36c1.17,0,2.32,0,3.47,0q1.51,0,1.51-1.49c0-12.44,0-24.87,0-37.31q0-.86-.88-.86c-1.21,0-2.42,0-3.64,0-.26,0-.5.02-.5-.37.01-2.61,0-5.23.01-7.84,0-.05.04-.11.06-.18h24.52v8.4Z"/><path class="cls-1" d="m92.16,99.87c-.11-2.32-.12-4.64-.36-6.94-.18-1.72-1.12-2.61-2.56-2.85-1.9-.33-3.35.29-4.2,1.79-.21.37-.37.75-.59,1.2-3.45-.71-6.91-1.42-10.47-2.16.12-.24.2-.43.3-.6,1.98-3.35,4.85-5.64,8.54-6.82,4.71-1.52,9.46-1.62,14.12.15,4.06,1.53,6.29,4.57,6.74,8.89.07.7.11,1.42.11,2.13,0,6.38.01,12.76,0,19.14,0,.56.1.78.72.75.96-.06,1.92-.02,2.93-.02v8.37h-15.37v-2.97c-.28.24-.46.4-.64.56-3.19,2.87-6.85,3.8-10.94,2.41-2.9-.98-4.86-3.08-6.04-5.84-1.84-4.32-1.85-8.68.17-12.94,3.1-6.53,11.01-8.32,16.59-4.64.24.16.48.3.72.45l.22-.06Zm-.1,10.03c0-.88,0-1.77,0-2.65,0-.18-.02-.41-.13-.54-.93-1.16-2.09-1.86-3.64-1.69-1.39.15-2.29.96-2.81,2.18-.8,1.88-.84,3.81-.11,5.72.47,1.22,1.38,1.97,2.71,2.13,1.06.13,2.02-.13,2.83-.85.76-.67,1.33-1.4,1.17-2.53-.08-.58-.01-1.19-.01-1.78Z"/><path class="cls-1" d="m79.84,24.48c.79-1.53,1.78-2.82,2.97-3.95,2.76-2.6,6.11-3.93,9.83-4.38,3.12-.38,6.21-.26,9.24.69,4.95,1.55,7.79,5.41,7.79,10.6,0,6.63,0,13.26,0,19.89,0,.23,0,.46,0,.75h3.67v8.39h-15.4v-2.92c-.7.57-1.3,1.1-1.95,1.57-4.6,3.34-11.83,2.7-15.07-3.38-2.9-5.43-2.73-10.92.84-16.05,1.95-2.8,4.81-4.19,8.23-4.47,2.68-.22,5.09.52,7.31,1.97.17.11.35.21.53.32.05-.05.09-.07.09-.1-.07-2.28-.02-4.57-.24-6.84-.18-1.83-1.13-2.7-2.68-2.93-1.9-.29-3.28.35-4.14,1.9-.2.36-.33.87-.63,1.02-.29.14-.77-.09-1.16-.17-3.04-.63-6.09-1.25-9.22-1.9Zm18.1,18.97c0-.88,0-1.77,0-2.65,0-.18-.04-.4-.14-.53-.98-1.21-2.21-1.92-3.82-1.65-1.46.24-2.31,1.22-2.78,2.55-.59,1.66-.61,3.36-.07,5.03.53,1.64,1.8,2.52,3.48,2.45.97-.04,1.77-.44,2.45-1.12.64-.64,1.03-1.34.9-2.3-.08-.59-.01-1.19-.01-1.79Z"/><path class="cls-1" d="m57.98,38.58c.02,2.78,0,5.44.61,8.07.03.13.07.26.11.39.38,1.21,1.08,2.07,2.45,2.18,1.38.11,2.62-.2,3.32-1.47.46-.84.7-1.81,1.03-2.73.08-.23.11-.48.18-.77,3.24,1.2,6.43,2.39,9.68,3.6-.09.25-.16.47-.25.67-2.57,6.02-7.74,9.27-14.52,9.13-6.12-.12-10.55-3.51-12.62-9.64-1.15-3.4-1.54-6.92-1.62-10.49-.08-3.74.17-7.45,1.29-11.05.82-2.64,2.08-5.04,4.13-6.95,2.46-2.29,5.43-3.32,8.74-3.51,4-.22,7.52.89,10.42,3.72,2.26,2.2,3.5,4.96,4.25,7.98.53,2.16.73,4.35.78,6.56.03,1.21-.03,2.42.02,3.63.02.57-.18.72-.72.69-.79-.04-1.58-.01-2.36-.01-4.69,0-9.39,0-14.08,0-.25,0-.49,0-.82,0Zm3.13-5.86c.88,0,1.77,0,2.65,0,.34,0,.48-.11.47-.47-.05-1.34-.04-2.69-.14-4.03-.08-1.07-.27-2.14-.86-3.08-1.04-1.64-3.33-1.56-4.24.16-.19.35-.34.74-.44,1.12-.51,1.93-.55,3.91-.57,5.89,0,.37.2.4.48.4.88,0,1.77,0,2.65,0Z"/><path class="cls-1" d="m118.6,48.09V8.48h-4.35V.04h16.11v48.04h3.86v8.38h-19.95v-8.37h4.34Z"/><path class="cls-1" d="m150.74,17.09h4.71v8.43h-4.69v.67c0,5.84,0,11.68,0,17.53,0,.67.09,1.34.21,2,.32,1.68,1.33,2.61,3.61,2.2.28-.05.55-.16.86-.25v8.83c-1.44.32-2.91.72-4.39.97-1.85.31-3.71.32-5.56-.1-3.02-.69-4.87-2.62-5.78-5.52-.53-1.7-.71-3.45-.71-5.23,0-6.75,0-13.49,0-20.24v-.81h-3.52v-8.46h3.52c0-.59,0-1.13,0-1.66,0-.98-.02-1.96.01-2.94,0-.22.11-.5.27-.63,3.75-2.95,7.51-5.88,11.26-8.81.03-.02.07-.03.19-.08v14.1Z"/><path class="cls-1" d="m178.1,114.52c1.2,0,2.37-.03,3.54.01.52.02.65-.15.65-.65-.02-7.11-.01-14.23,0-21.34,0-.47-.12-.64-.61-.63-1.17.03-2.34.01-3.56.01v-8.37h15.86v7.78c.06,0,.11.02.17.02.09-.3.19-.59.28-.89.46-1.61,1.05-3.17,1.99-4.57,1.4-2.08,3.39-3.05,5.87-3.06.17,0,.33.03.52.04v13.11c-.62.07-1.25.11-1.86.21-3.11.53-5.06,2.39-6.08,5.32-.68,1.95-.85,3.98-.88,6.01-.04,2.13,0,4.27-.02,6.4,0,.44.12.6.58.59,1.34-.03,2.69-.01,4.08-.01v8.36h-20.51v-8.36Z"/><path class="cls-1" d="m253.25,17.55h11.39v10.11h10.14v11.41h-10.1v10.19h-11.42v-.71c0-2.9,0-5.8,0-8.71q0-.76-.79-.76c-2.86,0-5.73,0-8.59,0h-.74v-11.39h10.11v-10.14Z"/></g></svg>