<?xml version="1.0" encoding="UTF-8"?><svg id="Layer_2" xmlns="http://www.w3.org/2000/svg" viewBox="0 0 81.69 47.84"><defs><style>.cls-1{fill:#fff;}.cls-2{fill:#29abe2;}</style></defs><g id="Layer_1-2"><path class="cls-1" d="m15.12,18.39h-7.08l-1.05,3.21H0L7.77.36h7.68l7.74,21.24h-7.02l-1.05-3.21Zm-1.62-5.01l-1.92-5.91-1.92,5.91h3.84Z"/><path class="cls-1" d="m24.92,20.02c-1.65-1.19-2.55-2.93-2.69-5.23h7.08c.1,1.22.64,1.83,1.62,1.83.36,0,.66-.08.92-.25.25-.17.38-.44.38-.79,0-.5-.27-.9-.81-1.22-.54-.31-1.38-.66-2.52-1.06-1.36-.48-2.49-.95-3.38-1.41-.89-.46-1.66-1.13-2.29-2.01-.64-.88-.95-2.01-.93-3.39,0-1.38.35-2.55,1.06-3.52.71-.97,1.68-1.7,2.91-2.21,1.23-.5,2.61-.75,4.15-.75,2.6,0,4.67.6,6.2,1.8,1.53,1.2,2.33,2.89,2.42,5.07h-7.17c-.02-.6-.17-1.03-.45-1.29-.28-.26-.62-.39-1.02-.39-.28,0-.51.1-.69.29-.18.19-.27.46-.27.79,0,.48.26.88.79,1.19.53.31,1.38.69,2.54,1.12,1.34.5,2.44.98,3.31,1.44.87.46,1.62,1.1,2.27,1.92.64.82.96,1.85.96,3.09s-.32,2.46-.96,3.49c-.64,1.03-1.57,1.84-2.79,2.42-1.22.58-2.67.87-4.35.87-2.54,0-4.64-.59-6.29-1.79Z"/><path class="cls-1" d="m60.21,21.6h-6.66l-7.05-10.68v10.68h-6.66V.36h6.66l7.05,10.86V.36h6.66v21.24Z"/><path class="cls-2" d="m22.89,26.9v20.7h-2.1v-16.53l-7.38,16.53h-1.53l-7.38-16.47v16.47h-2.1v-20.7h2.22l8.01,17.94,8.01-17.94h2.25Z"/><path class="cls-2" d="m40.62,40.22h-13.59c.06,1.24.36,2.3.9,3.18.54.88,1.25,1.55,2.13,2,.88.45,1.84.68,2.88.68,1.36,0,2.5-.33,3.44-.99s1.54-1.55,1.84-2.67h2.22c-.4,1.6-1.26,2.91-2.56,3.92-1.31,1.01-2.96,1.52-4.94,1.52-1.54,0-2.92-.35-4.14-1.04-1.22-.69-2.17-1.67-2.86-2.94s-1.04-2.75-1.04-4.46.34-3.19,1.02-4.47c.68-1.28,1.63-2.26,2.85-2.94,1.22-.68,2.61-1.02,4.17-1.02s2.92.34,4.1,1.02c1.17.68,2.07,1.6,2.7,2.75.63,1.15.95,2.43.95,3.83,0,.72-.02,1.27-.06,1.65Zm-2.81-4.83c-.51-.86-1.21-1.51-2.08-1.95-.88-.44-1.84-.66-2.88-.66-1.56,0-2.89.5-3.99,1.5-1.1,1-1.71,2.41-1.83,4.23h11.52c.02-1.22-.22-2.26-.73-3.12Z"/><path class="cls-2" d="m42.78,34.96c.68-1.27,1.61-2.25,2.81-2.94,1.19-.69,2.53-1.04,4.03-1.04s2.74.35,3.9,1.05c1.16.7,2.01,1.61,2.55,2.73v-9.36h2.1v22.2h-2.1v-3.66c-.5,1.14-1.32,2.08-2.46,2.81-1.14.73-2.48,1.1-4.02,1.1s-2.85-.35-4.04-1.05c-1.19-.7-2.12-1.69-2.79-2.97s-1-2.76-1-4.44.34-3.15,1.02-4.42Zm12.48.98c-.54-1-1.27-1.77-2.21-2.31-.93-.54-1.96-.81-3.07-.81s-2.2.26-3.12.78c-.92.52-1.65,1.27-2.17,2.26-.53.99-.8,2.17-.8,3.52s.27,2.52.8,3.53c.53,1.01,1.25,1.78,2.17,2.31.92.53,1.96.79,3.12.79s2.15-.27,3.07-.81c.93-.54,1.67-1.31,2.21-2.31.54-1,.81-2.16.81-3.48s-.27-2.48-.81-3.48Z"/><path class="cls-2" d="m61.14,27.68c-.3-.3-.45-.67-.45-1.11s.15-.81.45-1.1c.3-.29.66-.44,1.08-.44s.78.15,1.08.44c.3.29.45.66.45,1.1s-.15.81-.45,1.11-.66.45-1.08.45-.78-.15-1.08-.45Zm2.13,3.54v16.38h-2.1v-16.38h2.1Z"/><path class="cls-2" d="m66.28,34.96c.67-1.27,1.6-2.25,2.79-2.94s2.54-1.04,4.04-1.04,2.9.36,4.04,1.08c1.13.72,1.94,1.64,2.44,2.76v-3.6h2.1v16.38h-2.1v-3.63c-.52,1.12-1.35,2.04-2.48,2.77-1.13.73-2.48,1.1-4.03,1.1s-2.82-.35-4.01-1.05c-1.19-.7-2.12-1.69-2.79-2.97s-1-2.76-1-4.44.33-3.15,1-4.42Zm12.5.98c-.54-1-1.27-1.77-2.21-2.31-.93-.54-1.96-.81-3.07-.81s-2.2.26-3.12.78c-.92.52-1.65,1.27-2.17,2.26-.53.99-.8,2.17-.8,3.52s.27,2.52.8,3.53c.53,1.01,1.25,1.78,2.17,2.31.92.53,1.96.79,3.12.79s2.15-.27,3.07-.81c.93-.54,1.67-1.31,2.21-2.31.54-1,.81-2.16.81-3.48s-.27-2.48-.81-3.48Z"/><polygon class="cls-1" points="65.17 20.71 65.17 14.94 71.63 11.21 65.17 7.48 65.17 1.71 81.62 11.21 65.17 20.71"/></g></svg>