<?xml version="1.0" encoding="UTF-8"?><svg id="Layer_2" xmlns="http://www.w3.org/2000/svg" viewBox="0 0 139.1 110"><defs><style>.cls-1{fill:#fff;stroke-width:0px;}</style></defs><g id="Layer_1-2"><path class="cls-1" d="m128.44,107.83c-.4,1.8-.87,2.16-2.75,2.17-3.09,0-6.17,0-9.26,0-1.88,0-2.34-.37-2.76-2.21H25.54c-.06.24-.11.49-.19.74-.31.95-.93,1.48-1.97,1.48-3.5,0-7,0-10.5,0-1.27,0-1.77-.52-2.17-2.26-2.05,0-4.14-.11-6.22.03C1.98,107.93,0,106.11,0,103.22.04,74.29.04,45.36,0,16.42c0-2.63,1.67-4.77,4.55-4.59,2.12.14,4.25.01,6.38.04.6,0,.96-.09,1.22-.76.17-.44.77-.78,1.25-1.03.75-.4,1.5-.46,2.38-.09.48.2,1.23-.33,1.87-.37,1.3-.07,2.65-.23,3.9.04,1.02.22,2.43.24,2.75,1.79.04.2.65.39,1,.39,4.25.03,8.51.02,12.76.02,2.23,0,4.46-.03,6.69.02.78.02.99-.25.98-1.01-.04-2.47-.02-4.94-.01-7.4C45.73,1.19,46.93,0,49.22,0c13.58,0,27.17,0,40.75,0,2.33,0,3.44,1.12,3.44,3.47,0,2.47.03,4.94-.01,7.4-.01.77.25,1,1.01,1,6.52-.02,13.03-.02,19.55,0,.56,0,.91-.06,1.12-.74.13-.43.68-.8,1.12-1.05,1.38-.79,2.93-.6,4.43-.55.59.02,1.17.32,1.76.42.43.07,1.08.22,1.29,0,.77-.78,1.35-.12,2.04.05.85.21,1.27.66,1.51,1.47.06.2.59.37.91.37,2.3.03,4.6,0,6.89.02,2.49.01,4.07,1.56,4.07,4.02,0,29.24,0,58.48,0,87.73,0,2.58-1.57,4.11-4.19,4.12-2.09,0-4.18.01-6.28.03-.06,0-.13.05-.19.07Zm-21.81-48.22c0-20.39-16.47-36.94-36.59-37.14-19.73-.2-37.48,15.42-37.51,37.06-.02,21.04,16.9,36.98,36.75,37.06,20.75.08,37.34-16.41,37.34-36.98Zm-16.92-47.81c0-1.79,0-3.49,0-5.2,0-1.94-1.25-3.22-3.21-3.22-11.28-.01-22.57-.01-33.85,0-1.9,0-3.14,1.27-3.18,3.17-.03,1.34.06,2.68-.03,4.01-.07,1.04.24,1.33,1.3,1.32,12.59-.04,25.17-.02,37.76-.03.37,0,.74-.03,1.21-.05Z"/><path class="cls-1" d="m59.41,31.3h20.32v18.02h18.09v20.34h-18.02v18.17h-20.37v-1.26c0-5.17,0-10.35,0-15.52q0-1.36-1.41-1.36c-5.11,0-10.22,0-15.33,0h-1.32v-20.31h18.03v-18.08Z"/></g></svg>