<?xml version="1.0" encoding="UTF-8"?><svg id="Layer_2" xmlns="http://www.w3.org/2000/svg" viewBox="0 0 100 110"><defs><style>.cls-1{fill:#e02226;}.cls-2{fill:#404041;}.cls-3{fill:#808184;}</style></defs><g id="Layer_1-2"><path class="cls-1" d="m53.26,100.34c-11.19,0-20.25-9.18-20.25-20.51s9.07-20.51,20.25-20.51,20.25,9.18,20.25,20.51-9.07,20.51-20.25,20.51m31.88-24.14c0-17.94-15.28-33.63-35.35-32.37l-.62-8.39c-16.83,1.78-32.64,16.22-32.64,36.51s16.28,36.54,36.43,36.73c17.8-.19,32.17-14.66,32.17-32.48"/><path class="cls-3" d="m52.97,108.68c.12,0,.24,0,.36,0h-.72c.12,0,.24,0,.36,0-20.16-.19-36.43-16.56-36.43-36.73s15.81-34.73,32.64-36.51l.62,8.4c20.07-1.26,35.35,14.43,35.35,32.37s-14.37,32.29-32.17,32.48m.16-80.9l.29-10.55c-21.23.1-42.78,16.11-45.36,41.42-2.56,25.17,16.1,47.68,41.22,50.47,22.23,2.01,41.58-14.24,43.84-36.48,2.28-22.39-14.8-43.89-39.99-44.86"/><path class="cls-2" d="m93.12,72.64c-2.26,22.24-21.61,38.49-43.84,36.48-25.12-2.79-43.78-25.3-41.22-50.47,2.58-25.32,24.13-41.33,45.35-41.42l-.29,10.55c25.2.97,42.27,22.48,39.99,44.86M60.72,13.82l1.94-13.39C34.89-2.82,8.48,12.45,1.46,42.55c-6.98,29.92,11.65,58.95,41.48,66.18,26.47,5.86,49.51-9.11,55.67-35.55,6.21-26.62-8.86-52.81-37.9-59.37"/></g></svg>